<svg xmlns="http://www.w3.org/2000/svg" width="565" height="725" fill="none"><path fill="#fff" d="M194.084 377.22v-2.185h15.258v2.185h-6.397v18.163h-2.464V377.22h-6.397Zm17.158 18.163v-15.261h2.265v2.304h.159c.279-.754.782-1.368 1.51-1.837.729-.471 1.551-.706 2.464-.706.173 0 .387.003.646.01.258.006.454.016.586.03v2.384a7.179 7.179 0 0 0-.547-.088 5.294 5.294 0 0 0-.883-.07c-.742 0-1.405.155-1.987.466a3.522 3.522 0 0 0-1.371 1.272c-.332.537-.497 1.15-.497 1.838v9.658h-2.345Zm14.899.358c-.967 0-1.844-.182-2.633-.546a4.524 4.524 0 0 1-1.877-1.6c-.463-.702-.695-1.55-.695-2.544 0-.874.172-1.582.516-2.126.345-.55.805-.98 1.381-1.291a7.234 7.234 0 0 1 1.907-.696c.703-.16 1.408-.285 2.117-.377.927-.12 1.679-.209 2.255-.269.583-.066 1.007-.175 1.271-.328.272-.152.408-.418.408-.794v-.08c0-.981-.269-1.742-.805-2.286-.53-.542-1.334-.814-2.414-.814-1.119 0-1.996.245-2.633.735-.635.49-1.083 1.013-1.341 1.57l-2.225-.795c.397-.928.928-1.649 1.589-2.166a5.944 5.944 0 0 1 2.186-1.093 9.072 9.072 0 0 1 2.345-.318c.49 0 1.053.059 1.688.179a5.384 5.384 0 0 1 1.858.706c.602.357 1.103.897 1.5 1.618.397.723.596 1.69.596 2.902v10.055h-2.344v-2.066h-.12c-.159.332-.424.685-.794 1.063-.371.378-.864.699-1.481.963-.615.266-1.367.398-2.255.398Zm.358-2.106c.927 0 1.708-.182 2.345-.547.642-.364 1.126-.834 1.45-1.411a3.596 3.596 0 0 0 .497-1.818v-2.146c-.1.119-.319.229-.656.328-.331.092-.715.175-1.152.248-.431.066-.852.126-1.262.179-.404.046-.732.086-.983.119-.61.08-1.179.209-1.709.388-.523.172-.947.434-1.272.784-.317.345-.476.816-.476 1.411 0 .816.3 1.431.903 1.849.609.411 1.382.616 2.315.616Zm17.115 2.066c-1.431 0-2.663-.338-3.696-1.013-1.033-.676-1.828-1.606-2.384-2.792-.556-1.185-.835-2.54-.835-4.064 0-1.55.285-2.918.854-4.103.577-1.193 1.378-2.124 2.405-2.793 1.033-.675 2.238-1.013 3.616-1.013 1.073 0 2.04.199 2.9.596a5.541 5.541 0 0 1 2.116 1.67c.551.715.891 1.549 1.024 2.503h-2.345c-.178-.696-.576-1.311-1.192-1.848-.609-.544-1.43-.814-2.463-.814-.915 0-1.716.238-2.404.715-.683.47-1.216 1.135-1.6 1.997-.377.854-.566 1.858-.566 3.011 0 1.179.186 2.205.556 3.08.378.874.907 1.554 1.59 2.037.688.484 1.496.725 2.424.725.609 0 1.162-.106 1.658-.318a3.432 3.432 0 0 0 1.262-.913c.345-.398.59-.875.735-1.431h2.345c-.133.9-.46 1.711-.984 2.434-.516.715-1.202 1.285-2.056 1.709-.848.417-1.834.625-2.96.625Zm11.612-5.882-.039-2.901h.477l6.676-6.796h2.9l-7.112 7.193h-.199l-2.703 2.504Zm-2.185 5.564v-20.348h2.345v20.348h-2.345Zm9.696 0-5.96-7.551 1.669-1.629 7.271 9.18h-2.98Zm15.734-9.18v9.18h-2.345v-20.348h2.345v7.471h.199a4.306 4.306 0 0 1 1.609-1.877c.722-.471 1.682-.706 2.881-.706 1.04 0 1.95.208 2.732.626.781.41 1.387 1.043 1.818 1.897.437.849.655 1.928.655 3.24v9.697h-2.344v-9.538c0-1.212-.315-2.149-.944-2.812-.623-.67-1.487-1.003-2.593-1.003-.768 0-1.457.162-2.066.486a3.57 3.57 0 0 0-1.431 1.421c-.344.623-.516 1.377-.516 2.266Zm14.183 9.18v-15.261h2.345v15.261h-2.345Zm1.193-17.805c-.457 0-.851-.156-1.183-.467a1.498 1.498 0 0 1-.486-1.123c0-.437.161-.812.486-1.122a1.668 1.668 0 0 1 1.183-.468c.457 0 .847.156 1.172.468.331.31.497.685.497 1.122 0 .438-.166.811-.497 1.123a1.634 1.634 0 0 1-1.172.467Zm16.255 5.962-2.106.596a3.885 3.885 0 0 0-.587-1.024c-.251-.338-.595-.616-1.033-.835-.437-.218-.996-.327-1.678-.327-.935 0-1.713.216-2.335.645-.616.425-.924.965-.924 1.62 0 .583.212 1.043.636 1.381.423.338 1.086.62 1.987.845l2.265.556c1.364.332 2.381.839 3.049 1.521.67.676 1.003 1.546 1.003 2.613 0 .875-.25 1.656-.754 2.345-.496.689-1.192 1.232-2.086 1.63-.894.397-1.934.595-3.119.595-1.557 0-2.845-.338-3.865-1.013-1.02-.676-1.665-1.663-1.937-2.961l2.225-.557c.212.822.612 1.438 1.202 1.849.596.411 1.375.616 2.335.616 1.093 0 1.96-.232 2.602-.696.65-.47.974-1.033.974-1.689 0-.529-.185-.974-.556-1.331-.372-.365-.941-.636-1.709-.815l-2.543-.596c-1.398-.332-2.424-.845-3.08-1.541-.649-.701-.974-1.58-.974-2.633 0-.86.242-1.623.726-2.285.489-.662 1.156-1.183 1.996-1.56.848-.377 1.808-.566 2.882-.566 1.509 0 2.695.331 3.556.993.868.663 1.483 1.537 1.848 2.624Zm10.443-3.418v1.987h-7.908v-1.987h7.908Zm-5.603-3.657h2.344v14.546c0 .663.097 1.16.289 1.491.199.325.451.543.755.656.311.106.639.159.984.159.257 0 .47-.013.635-.04l.398-.079.476 2.107c-.159.058-.38.118-.665.178a4.92 4.92 0 0 1-1.083.099 4.736 4.736 0 0 1-1.948-.426 3.888 3.888 0 0 1-1.569-1.302c-.411-.583-.616-1.319-.616-2.206v-15.183Zm15.165 19.236c-1.378 0-2.586-.328-3.626-.983-1.033-.656-1.841-1.573-2.424-2.752-.576-1.179-.864-2.557-.864-4.134 0-1.589.288-2.977.864-4.163.583-1.186 1.391-2.107 2.424-2.763 1.04-.655 2.248-.983 3.626-.983 1.378 0 2.583.328 3.616.983 1.04.656 1.848 1.577 2.425 2.763.582 1.186.874 2.574.874 4.163 0 1.577-.292 2.955-.874 4.134-.577 1.179-1.385 2.096-2.425 2.752-1.033.655-2.238.983-3.616.983Zm0-2.106c1.046 0 1.907-.268 2.583-.805.676-.536 1.176-1.242 1.5-2.116a8.098 8.098 0 0 0 .487-2.842c0-1.02-.162-1.971-.487-2.851-.324-.882-.824-1.593-1.5-2.137s-1.537-.814-2.583-.814c-1.046 0-1.907.27-2.583.814-.675.544-1.176 1.255-1.5 2.137a8.191 8.191 0 0 0-.487 2.851c0 1.02.163 1.967.487 2.842.324.874.825 1.58 1.5 2.116.676.537 1.537.805 2.583.805Zm10.494 1.788v-15.261h2.265v2.304h.159c.277-.754.781-1.368 1.509-1.837.729-.471 1.55-.706 2.464-.706.172 0 .388.003.645.01.259.006.454.016.587.03v2.384a7.369 7.369 0 0 0-.547-.088 5.289 5.289 0 0 0-.884-.07c-.741 0-1.404.155-1.986.466a3.525 3.525 0 0 0-1.372 1.272c-.331.537-.496 1.15-.496 1.838v9.658h-2.344Zm12.383 5.725c-.398 0-.753-.034-1.063-.1-.312-.06-.527-.119-.646-.179l.596-2.067c.569.146 1.073.199 1.51.159.437-.04.825-.235 1.162-.587.345-.343.659-.903.943-1.678l.438-1.193-5.643-15.341h2.544l4.212 12.162h.159l4.212-12.162h2.543l-6.477 17.488c-.292.787-.653 1.44-1.083 1.957a4.074 4.074 0 0 1-1.5 1.163c-.564.252-1.199.378-1.907.378Zm-170.853 19.258h-2.464a5.124 5.124 0 0 0-.765-1.868 5.094 5.094 0 0 0-1.311-1.351 5.574 5.574 0 0 0-1.699-.835 6.799 6.799 0 0 0-1.947-.278c-1.231 0-2.347.312-3.348.935-.994.622-1.785 1.539-2.374 2.752-.583 1.212-.875 2.699-.875 4.461 0 1.762.292 3.249.875 4.461.589 1.213 1.38 2.13 2.374 2.753 1.001.622 2.117.934 3.348.934.676 0 1.324-.093 1.947-.279a5.689 5.689 0 0 0 1.699-.824 5.241 5.241 0 0 0 1.311-1.361 5.227 5.227 0 0 0 .765-1.868h2.464c-.186 1.039-.523 1.971-1.013 2.792-.49.821-1.1 1.52-1.828 2.097a8.026 8.026 0 0 1-2.454 1.301 9.147 9.147 0 0 1-2.891.447c-1.735 0-3.279-.424-4.629-1.272-1.351-.848-2.414-2.053-3.19-3.616-.774-1.564-1.162-3.419-1.162-5.565 0-2.146.388-4.001 1.162-5.565.776-1.563 1.839-2.769 3.19-3.616 1.35-.849 2.894-1.272 4.629-1.272 1.027 0 1.99.149 2.891.447a7.884 7.884 0 0 1 2.454 1.312 7.495 7.495 0 0 1 1.828 2.086c.49.816.827 1.746 1.013 2.792Zm9.862 14.308c-1.377 0-2.586-.327-3.625-.983-1.034-.656-1.842-1.573-2.425-2.752-.576-1.179-.864-2.557-.864-4.134 0-1.589.288-2.977.864-4.163.583-1.186 1.391-2.107 2.425-2.762 1.039-.656 2.248-.984 3.625-.984 1.378 0 2.583.328 3.616.984 1.04.655 1.849 1.576 2.424 2.762.584 1.186.874 2.574.874 4.163 0 1.577-.29 2.955-.874 4.134-.575 1.179-1.384 2.096-2.424 2.752-1.033.656-2.238.983-3.616.983Zm0-2.106c1.046 0 1.908-.268 2.583-.805.676-.536 1.176-1.242 1.5-2.116a8.098 8.098 0 0 0 .487-2.842c0-1.02-.162-1.971-.487-2.851-.324-.882-.824-1.593-1.5-2.137-.675-.543-1.537-.814-2.583-.814-1.047 0-1.907.271-2.582.814-.677.544-1.176 1.255-1.501 2.137a8.168 8.168 0 0 0-.487 2.851c0 1.02.162 1.967.487 2.842.325.874.824 1.58 1.501 2.116.675.537 1.535.805 2.582.805Zm10.493 1.789v-15.262h2.265v2.384h.199c.318-.814.831-1.448 1.54-1.897.709-.458 1.559-.686 2.553-.686 1.006 0 1.845.228 2.513.686.676.449 1.203 1.083 1.58 1.897h.159a4.445 4.445 0 0 1 1.758-1.877c.782-.471 1.719-.706 2.811-.706 1.365 0 2.481.427 3.349 1.281.868.849 1.301 2.17 1.301 3.966v10.214h-2.345v-10.214c0-1.127-.307-1.932-.924-2.416-.615-.482-1.341-.724-2.175-.724-1.073 0-1.904.324-2.494.973-.589.643-.884 1.457-.884 2.444v9.937h-2.384v-10.453c0-.868-.281-1.567-.844-2.097-.563-.536-1.289-.804-2.176-.804a3.22 3.22 0 0 0-1.709.486 3.677 3.677 0 0 0-1.271 1.351c-.318.57-.477 1.23-.477 1.978v9.539h-2.345Zm24.315 5.724v-20.986h2.265v2.424h.278c.172-.264.411-.603.716-1.014.31-.417.754-.787 1.331-1.112.582-.332 1.37-.497 2.363-.497 1.285 0 2.418.321 3.398.964.981.642 1.746 1.553 2.295 2.733.55 1.178.825 2.569.825 4.173 0 1.616-.275 3.017-.825 4.203-.549 1.179-1.311 2.092-2.285 2.742-.973.643-2.096.963-3.368.963-.98 0-1.764-.162-2.354-.486-.589-.331-1.043-.706-1.361-1.123a14.996 14.996 0 0 1-.735-1.053h-.199v8.069h-2.344Zm2.305-13.355c0 1.152.168 2.169.506 3.05.338.874.831 1.561 1.481 2.057.648.49 1.443.735 2.384.735.98 0 1.798-.258 2.453-.775.663-.523 1.159-1.225 1.491-2.106.338-.888.507-1.875.507-2.961 0-1.073-.166-2.041-.498-2.902-.324-.868-.817-1.553-1.48-2.057-.655-.509-1.48-.764-2.473-.764-.953 0-1.756.242-2.404.724-.65.478-1.139 1.146-1.471 2.008-.331.854-.496 1.852-.496 2.991Zm19.232 7.988c-.967 0-1.844-.182-2.632-.546a4.527 4.527 0 0 1-1.878-1.6c-.463-.702-.695-1.55-.695-2.543 0-.875.172-1.583.517-2.127.344-.55.804-.98 1.38-1.291a7.228 7.228 0 0 1 1.908-.696 22.93 22.93 0 0 1 2.116-.377c.927-.12 1.678-.209 2.255-.269.582-.066 1.007-.175 1.272-.328.271-.152.406-.418.406-.794v-.08c0-.981-.267-1.742-.804-2.286-.529-.542-1.335-.814-2.414-.814-1.119 0-1.997.245-2.632.735-.636.49-1.083 1.014-1.341 1.57l-2.226-.795c.397-.928.927-1.649 1.589-2.166a5.967 5.967 0 0 1 2.186-1.093 9.07 9.07 0 0 1 2.344-.318c.491 0 1.053.059 1.69.179a5.386 5.386 0 0 1 1.857.706c.603.357 1.103.897 1.5 1.618.397.723.596 1.69.596 2.902v10.056h-2.345v-2.067h-.119c-.158.332-.423.685-.794 1.063-.372.378-.864.699-1.481.964-.615.265-1.367.397-2.255.397Zm.358-2.106c.927 0 1.709-.182 2.345-.547.643-.364 1.126-.834 1.45-1.411a3.595 3.595 0 0 0 .496-1.818v-2.146c-.099.119-.317.229-.655.328-.331.093-.715.175-1.152.248-.431.066-.851.126-1.262.179-.404.046-.731.086-.983.119-.61.08-1.179.209-1.71.388-.522.172-.946.434-1.27.784-.318.345-.478.816-.478 1.411 0 .816.302 1.431.904 1.849.61.411 1.381.616 2.315.616Zm10.915 1.749v-15.262h2.265v2.304h.159c.279-.754.782-1.368 1.511-1.837.728-.471 1.55-.706 2.463-.706.173 0 .387.003.646.01.258.006.454.016.586.03v2.385a6.538 6.538 0 0 0-.546-.089 5.315 5.315 0 0 0-.884-.07c-.742 0-1.405.156-1.987.466a3.522 3.522 0 0 0-1.371 1.272c-.332.537-.497 1.15-.497 1.838v9.659h-2.345Zm16.343.317c-1.471 0-2.739-.323-3.806-.973-1.059-.656-1.877-1.57-2.453-2.742-.57-1.179-.855-2.55-.855-4.114 0-1.563.285-2.941.855-4.133.576-1.2 1.377-2.134 2.404-2.802 1.033-.676 2.238-1.014 3.616-1.014.795 0 1.58.132 2.355.397.774.266 1.48.695 2.115 1.292.637.59 1.143 1.371 1.521 2.345.378.974.565 2.173.565 3.597v.993H270.51v-2.026h9.378c0-.862-.172-1.63-.517-2.306a3.896 3.896 0 0 0-1.451-1.6c-.622-.39-1.358-.585-2.205-.585-.934 0-1.741.232-2.424.695a4.574 4.574 0 0 0-1.559 1.788 5.25 5.25 0 0 0-.547 2.365v1.351c0 1.154.199 2.13.596 2.931.404.796.964 1.401 1.679 1.819.716.411 1.547.616 2.494.616.615 0 1.172-.086 1.669-.258a3.575 3.575 0 0 0 1.301-.795c.364-.357.646-.802.845-1.332l2.265.636a5.047 5.047 0 0 1-1.202 2.028c-.564.576-1.259 1.026-2.086 1.351-.829.317-1.759.476-2.792.476Zm30.23-15.579-5.643 15.262h-2.384l-5.643-15.262h2.543l4.212 12.162h.159l4.212-12.162h2.544Zm8.946 15.579c-1.47 0-2.738-.323-3.805-.973-1.059-.656-1.878-1.57-2.454-2.742-.57-1.179-.854-2.55-.854-4.114 0-1.563.284-2.941.854-4.133.576-1.2 1.378-2.134 2.405-2.802 1.033-.676 2.238-1.014 3.615-1.014.795 0 1.58.132 2.354.397a5.833 5.833 0 0 1 2.117 1.292c.636.59 1.142 1.371 1.52 2.345.378.974.566 2.173.566 3.597v.993h-11.762v-2.026h9.378c0-.862-.172-1.63-.517-2.306a3.894 3.894 0 0 0-1.45-1.6c-.623-.39-1.358-.585-2.206-.585-.934 0-1.741.232-2.423.695a4.577 4.577 0 0 0-1.56 1.788 5.25 5.25 0 0 0-.547 2.365v1.351c0 1.154.199 2.13.596 2.931.405.796.964 1.401 1.679 1.819.716.411 1.547.616 2.494.616a5.08 5.08 0 0 0 1.669-.258 3.587 3.587 0 0 0 1.302-.795c.363-.357.645-.802.844-1.332l2.265.636a5.047 5.047 0 0 1-1.202 2.028c-.564.576-1.259 1.026-2.086 1.351-.828.317-1.759.476-2.792.476Zm9.884-.317v-15.262h2.265v2.304h.159c.279-.754.782-1.368 1.511-1.837.728-.471 1.55-.706 2.463-.706.173 0 .387.003.646.01.258.006.454.016.586.03v2.385a6.538 6.538 0 0 0-.546-.089 5.315 5.315 0 0 0-.884-.07c-.742 0-1.405.156-1.987.466a3.522 3.522 0 0 0-1.371 1.272c-.332.537-.497 1.15-.497 1.838v9.659h-2.345Zm21.218-11.844-2.106.596a3.925 3.925 0 0 0-.586-1.024 2.834 2.834 0 0 0-1.034-.834c-.437-.219-.996-.328-1.679-.328-.934 0-1.711.216-2.334.645-.616.425-.924.965-.924 1.62 0 .583.212 1.044.636 1.381.423.338 1.086.62 1.987.845l2.265.556c1.364.332 2.381.839 3.049 1.521.67.676 1.004 1.546 1.004 2.613a3.87 3.87 0 0 1-.755 2.345c-.496.689-1.192 1.232-2.086 1.63-.894.397-1.934.595-3.119.595-1.557 0-2.845-.337-3.865-1.013-1.02-.676-1.665-1.663-1.937-2.961l2.225-.557c.212.822.612 1.438 1.202 1.849.596.411 1.375.616 2.335.616 1.093 0 1.96-.232 2.602-.696.65-.469.974-1.033.974-1.689 0-.529-.185-.974-.556-1.331-.372-.364-.941-.636-1.709-.815l-2.543-.596c-1.398-.331-2.424-.845-3.079-1.541-.65-.701-.975-1.58-.975-2.633 0-.86.242-1.623.726-2.285.49-.662 1.156-1.182 1.997-1.56.847-.377 1.807-.566 2.88-.566 1.51 0 2.696.331 3.557.994.868.662 1.484 1.536 1.848 2.623Zm3.807 11.844v-15.262h2.344v15.262h-2.344Zm1.192-17.806a1.67 1.67 0 0 1-1.182-.467 1.502 1.502 0 0 1-.486-1.123c0-.437.162-.812.486-1.122a1.666 1.666 0 0 1 1.182-.468c.457 0 .848.156 1.172.468.332.31.498.685.498 1.122 0 .438-.166.811-.498 1.123a1.632 1.632 0 0 1-1.172.467Zm11.646 18.123c-1.378 0-2.587-.327-3.626-.983-1.033-.656-1.841-1.573-2.424-2.752-.576-1.179-.864-2.557-.864-4.134 0-1.589.288-2.977.864-4.163.583-1.186 1.391-2.107 2.424-2.762 1.039-.656 2.248-.984 3.626-.984 1.378 0 2.583.328 3.616.984 1.04.655 1.848 1.576 2.424 2.762.583 1.186.874 2.574.874 4.163 0 1.577-.291 2.955-.874 4.134-.576 1.179-1.384 2.096-2.424 2.752-1.033.656-2.238.983-3.616.983Zm0-2.106c1.046 0 1.907-.268 2.583-.805.675-.536 1.176-1.242 1.5-2.116a8.12 8.12 0 0 0 .487-2.842c0-1.02-.163-1.971-.487-2.851-.324-.882-.825-1.593-1.5-2.137-.676-.543-1.537-.814-2.583-.814-1.046 0-1.907.271-2.583.814-.675.544-1.176 1.255-1.5 2.137a8.191 8.191 0 0 0-.487 2.851c0 1.02.163 1.967.487 2.842.324.874.825 1.58 1.5 2.116.676.537 1.537.805 2.583.805Zm12.838-7.392v9.181h-2.345v-15.262h2.266v2.384h.197a4.356 4.356 0 0 1 1.63-1.867c.728-.478 1.67-.716 2.821-.716 1.034 0 1.938.212 2.712.636.775.418 1.378 1.053 1.808 1.907.431.849.646 1.921.646 3.22v9.698h-2.344v-9.539c0-1.199-.312-2.133-.934-2.802-.623-.675-1.477-1.013-2.563-1.013-.748 0-1.418.162-2.007.486a3.49 3.49 0 0 0-1.381 1.421c-.338.623-.506 1.377-.506 2.266Zm24.829-2.663-2.107.596a3.925 3.925 0 0 0-.586-1.024 2.847 2.847 0 0 0-1.033-.834c-.438-.219-.997-.328-1.68-.328-.933 0-1.711.216-2.334.645-.616.425-.924.965-.924 1.62 0 .583.212 1.044.636 1.381.424.338 1.087.62 1.987.845l2.265.556c1.365.332 2.381.839 3.05 1.521.669.676 1.003 1.546 1.003 2.613a3.87 3.87 0 0 1-.755 2.345c-.497.689-1.192 1.232-2.086 1.63-.894.397-1.933.595-3.119.595-1.557 0-2.845-.337-3.865-1.013-1.02-.676-1.666-1.663-1.937-2.961l2.226-.557c.212.822.612 1.438 1.202 1.849.595.411 1.373.616 2.334.616 1.093 0 1.96-.232 2.602-.696.65-.469.974-1.033.974-1.689 0-.529-.185-.974-.556-1.331-.371-.364-.94-.636-1.709-.815l-2.543-.596c-1.397-.331-2.424-.845-3.08-1.541-.649-.701-.973-1.58-.973-2.633 0-.86.241-1.623.725-2.285.49-.662 1.156-1.182 1.997-1.56.847-.377 1.808-.566 2.88-.566 1.511 0 2.696.331 3.557.994.867.662 1.484 1.536 1.849 2.623Zm-253.259 36.826h-2.464a5.112 5.112 0 0 0-.765-1.867 5.065 5.065 0 0 0-1.311-1.351 5.554 5.554 0 0 0-1.699-.836 6.799 6.799 0 0 0-1.947-.278c-1.232 0-2.348.312-3.348.935-.994.622-1.785 1.54-2.375 2.752-.582 1.212-.874 2.699-.874 4.461 0 1.762.292 3.249.874 4.462.59 1.212 1.381 2.129 2.375 2.752 1 .622 2.116.934 3.348.934.676 0 1.324-.093 1.947-.279a5.665 5.665 0 0 0 1.699-.824 5.241 5.241 0 0 0 1.311-1.361 5.22 5.22 0 0 0 .765-1.868h2.464c-.186 1.039-.523 1.971-1.013 2.792a7.658 7.658 0 0 1-1.828 2.097 8.026 8.026 0 0 1-2.454 1.301c-.9.299-1.865.447-2.891.447-1.735 0-3.279-.424-4.63-1.272-1.35-.848-2.413-2.053-3.189-3.616-.774-1.564-1.162-3.419-1.162-5.565 0-2.146.388-4.001 1.162-5.565.776-1.562 1.839-2.769 3.189-3.616 1.351-.848 2.895-1.272 4.63-1.272 1.026 0 1.991.149 2.891.448a7.86 7.86 0 0 1 2.454 1.311 7.511 7.511 0 0 1 1.828 2.086c.49.816.827 1.746 1.013 2.792Zm9.862 14.308c-1.377 0-2.586-.327-3.625-.983-1.034-.655-1.842-1.573-2.425-2.752-.576-1.179-.865-2.557-.865-4.134 0-1.589.289-2.977.865-4.163.583-1.185 1.391-2.107 2.425-2.762 1.039-.656 2.248-.984 3.625-.984 1.378 0 2.583.328 3.616.984 1.04.655 1.848 1.577 2.424 2.762.583 1.186.874 2.574.874 4.163 0 1.577-.291 2.955-.874 4.134-.576 1.179-1.384 2.097-2.424 2.752-1.033.656-2.238.983-3.616.983Zm0-2.106c1.046 0 1.908-.268 2.583-.805.675-.536 1.176-1.242 1.501-2.116a8.143 8.143 0 0 0 .486-2.842 8.218 8.218 0 0 0-.486-2.851c-.325-.882-.826-1.593-1.501-2.137-.675-.543-1.537-.814-2.583-.814-1.046 0-1.907.271-2.582.814-.676.544-1.176 1.255-1.501 2.137a8.172 8.172 0 0 0-.487 2.851c0 1.02.162 1.967.487 2.842.325.874.825 1.58 1.501 2.116.675.537 1.536.805 2.582.805Zm12.838-18.56v20.349h-2.345v-20.349h2.345Zm6.638 0v20.349h-2.344v-20.349h2.344Zm8.785 20.706c-.967 0-1.844-.181-2.632-.546a4.521 4.521 0 0 1-1.878-1.6c-.463-.702-.695-1.55-.695-2.543 0-.875.172-1.583.516-2.127a3.64 3.64 0 0 1 1.381-1.291 7.215 7.215 0 0 1 1.908-.696 23.149 23.149 0 0 1 2.116-.377c.927-.12 1.678-.209 2.255-.269.582-.066 1.006-.175 1.271-.328.271-.152.407-.418.407-.794v-.08c0-.981-.268-1.742-.804-2.286-.531-.542-1.335-.814-2.414-.814-1.12 0-1.997.245-2.633.735-.636.49-1.083 1.014-1.341 1.57l-2.226-.795c.398-.928.928-1.649 1.59-2.166a5.955 5.955 0 0 1 2.185-1.093 9.078 9.078 0 0 1 2.345-.318c.491 0 1.053.059 1.689.179a5.399 5.399 0 0 1 1.858.706c.602.357 1.102.897 1.5 1.619.397.722.596 1.689.596 2.902v10.055h-2.345v-2.067h-.119c-.159.332-.423.686-.795 1.063-.371.378-.864.699-1.48.964s-1.368.397-2.255.397Zm.358-2.106c.927 0 1.708-.182 2.344-.547.642-.364 1.126-.834 1.451-1.411.33-.575.496-1.182.496-1.818v-2.146c-.099.119-.318.229-.655.328-.332.093-.716.176-1.153.249-.43.065-.85.125-1.261.178-.405.046-.732.086-.984.119-.61.08-1.179.209-1.709.388-.523.172-.947.434-1.272.785-.317.344-.476.815-.476 1.411 0 .815.302 1.431.904 1.848.609.411 1.381.616 2.315.616Zm11.233 1.749v-20.349h2.345v7.511h.198c.173-.264.41-.603.715-1.014.312-.417.755-.787 1.332-1.112.582-.332 1.371-.497 2.364-.497 1.285 0 2.418.321 3.398.964.98.642 1.744 1.554 2.295 2.733.549 1.178.824 2.569.824 4.173 0 1.616-.275 3.017-.824 4.203-.551 1.179-1.312 2.093-2.285 2.742-.974.643-2.096.963-3.368.963-.98 0-1.766-.161-2.355-.486-.59-.331-1.043-.706-1.361-1.122a15.575 15.575 0 0 1-.735-1.054h-.278v2.345h-2.265Zm2.305-7.631c0 1.152.169 2.169.506 3.05.338.874.832 1.561 1.48 2.057.65.49 1.444.735 2.385.735.98 0 1.797-.258 2.454-.775.662-.523 1.159-1.225 1.49-2.106.337-.888.506-1.875.506-2.961 0-1.073-.165-2.041-.496-2.902-.325-.868-.819-1.553-1.48-2.057-.657-.509-1.481-.764-2.474-.764-.954 0-1.755.242-2.404.724-.649.478-1.14 1.147-1.47 2.008-.332.854-.497 1.852-.497 2.991Zm20.951 7.948c-1.377 0-2.586-.327-3.625-.983-1.033-.655-1.842-1.573-2.424-2.752-.577-1.179-.865-2.557-.865-4.134 0-1.589.288-2.977.865-4.163.582-1.185 1.391-2.107 2.424-2.762 1.039-.656 2.248-.984 3.625-.984 1.378 0 2.583.328 3.616.984 1.04.655 1.849 1.577 2.424 2.762.583 1.186.874 2.574.874 4.163 0 1.577-.291 2.955-.874 4.134-.575 1.179-1.384 2.097-2.424 2.752-1.033.656-2.238.983-3.616.983Zm0-2.106c1.046 0 1.908-.268 2.583-.805.675-.536 1.176-1.242 1.501-2.116a8.143 8.143 0 0 0 .486-2.842 8.218 8.218 0 0 0-.486-2.851c-.325-.882-.826-1.593-1.501-2.137-.675-.543-1.537-.814-2.583-.814-1.046 0-1.907.271-2.582.814-.676.544-1.176 1.255-1.501 2.137a8.172 8.172 0 0 0-.487 2.851c0 1.02.162 1.967.487 2.842.325.874.825 1.58 1.501 2.116.675.537 1.536.805 2.582.805Zm10.493 1.789v-15.262h2.265v2.305h.16c.278-.755.781-1.368 1.51-1.838.728-.471 1.549-.706 2.463-.706.172 0 .388.003.646.01.259.006.453.016.586.03v2.385c-.08-.02-.261-.05-.546-.089a5.315 5.315 0 0 0-.884-.07c-.742 0-1.404.156-1.988.466a3.522 3.522 0 0 0-1.37 1.273c-.331.536-.497 1.149-.497 1.837v9.659h-2.345Zm14.9.357c-.967 0-1.844-.181-2.633-.546a4.527 4.527 0 0 1-1.878-1.6c-.464-.702-.696-1.55-.696-2.543 0-.875.173-1.583.518-2.127.344-.55.804-.98 1.381-1.291a7.208 7.208 0 0 1 1.907-.696 23.21 23.21 0 0 1 2.116-.377c.927-.12 1.679-.209 2.255-.269.583-.066 1.006-.175 1.271-.328.272-.152.408-.418.408-.794v-.08c0-.981-.268-1.742-.805-2.286-.53-.542-1.334-.814-2.413-.814-1.12 0-1.998.245-2.633.735-.637.49-1.083 1.014-1.342 1.57l-2.225-.795c.398-.928.927-1.649 1.59-2.166a5.948 5.948 0 0 1 2.185-1.093 9.072 9.072 0 0 1 2.345-.318c.49 0 1.053.059 1.688.179a5.396 5.396 0 0 1 1.859.706c.602.357 1.102.897 1.499 1.619.398.722.597 1.689.597 2.902v10.055h-2.345v-2.067h-.119c-.159.332-.424.686-.795 1.063-.371.378-.865.699-1.48.964-.617.265-1.368.397-2.255.397Zm.358-2.106c.927 0 1.708-.182 2.343-.547.643-.364 1.126-.834 1.451-1.411a3.593 3.593 0 0 0 .497-1.818v-2.146c-.099.119-.318.229-.656.328a10.97 10.97 0 0 1-1.153.249c-.429.065-.85.125-1.261.178-.404.046-.732.086-.984.119a8.966 8.966 0 0 0-1.708.388c-.524.172-.947.434-1.272.785-.318.344-.477.815-.477 1.411 0 .815.302 1.431.905 1.848.609.411 1.38.616 2.315.616Zm17.551-13.513v1.987h-7.908v-1.987h7.908Zm-5.603-3.657h2.344v14.547c0 .662.097 1.159.289 1.491.198.324.45.542.754.655.312.106.639.159.984.159.258 0 .47-.013.636-.04l.397-.079.477 2.107a4.913 4.913 0 0 1-.666.179 4.915 4.915 0 0 1-1.083.098 4.715 4.715 0 0 1-1.947-.426 3.891 3.891 0 0 1-1.57-1.302c-.41-.583-.615-1.318-.615-2.206v-15.183Zm15.363 19.236c-1.47 0-2.738-.323-3.804-.973-1.06-.655-1.879-1.57-2.454-2.742-.57-1.179-.854-2.55-.854-4.114 0-1.563.284-2.941.854-4.133.575-1.2 1.378-2.134 2.404-2.802 1.033-.676 2.239-1.014 3.616-1.014.795 0 1.579.132 2.354.397.775.266 1.48.696 2.117 1.292.635.59 1.142 1.371 1.519 2.345.378.974.567 2.173.567 3.597v.993h-11.763v-2.026h9.378c0-.862-.172-1.63-.517-2.306a3.899 3.899 0 0 0-1.449-1.6c-.623-.39-1.358-.585-2.206-.585-.934 0-1.742.232-2.424.695a4.585 4.585 0 0 0-1.56 1.788 5.262 5.262 0 0 0-.546 2.365v1.352c0 1.153.198 2.129.596 2.931.404.795.963 1.401 1.679 1.818.715.411 1.546.616 2.493.616a5.08 5.08 0 0 0 1.669-.258 3.587 3.587 0 0 0 1.302-.795c.364-.357.645-.802.844-1.331l2.265.635a5.018 5.018 0 0 1-1.202 2.028c-.562.576-1.258 1.026-2.086 1.351-.828.318-1.759.476-2.792.476Zm23.952 0c-1.431 0-2.663-.337-3.696-1.013-1.033-.675-1.827-1.606-2.384-2.792-.556-1.185-.834-2.54-.834-4.064 0-1.55.285-2.918.854-4.103.576-1.192 1.377-2.124 2.404-2.792 1.033-.676 2.238-1.014 3.616-1.014 1.073 0 2.04.199 2.902.596.86.398 1.565.954 2.115 1.67.55.715.891 1.55 1.024 2.503h-2.345c-.179-.696-.577-1.311-1.192-1.848-.61-.543-1.431-.814-2.464-.814-.914 0-1.715.238-2.404.715-.682.47-1.216 1.136-1.599 1.997-.378.854-.567 1.858-.567 3.011 0 1.179.186 2.205.557 3.08.377.874.907 1.554 1.589 2.037.689.484 1.497.725 2.424.725.61 0 1.162-.106 1.659-.318a3.42 3.42 0 0 0 1.261-.913c.345-.398.59-.875.736-1.431h2.345a5.445 5.445 0 0 1-.984 2.434c-.517.716-1.202 1.285-2.057 1.709-.847.418-1.834.625-2.96.625Zm15.627 0c-1.378 0-2.586-.327-3.627-.983-1.033-.655-1.84-1.573-2.423-2.752-.577-1.179-.865-2.557-.865-4.134 0-1.589.288-2.977.865-4.163.583-1.185 1.39-2.107 2.423-2.762 1.041-.656 2.249-.984 3.627-.984 1.377 0 2.583.328 3.616.984 1.04.655 1.847 1.577 2.424 2.762.582 1.186.874 2.574.874 4.163 0 1.577-.292 2.955-.874 4.134-.577 1.179-1.384 2.097-2.424 2.752-1.033.656-2.239.983-3.616.983Zm0-2.106c1.046 0 1.908-.268 2.583-.805.675-.536 1.175-1.242 1.5-2.116a8.12 8.12 0 0 0 .486-2.842 8.195 8.195 0 0 0-.486-2.851c-.325-.882-.825-1.593-1.5-2.137-.675-.543-1.537-.814-2.583-.814-1.047 0-1.908.271-2.583.814-.676.544-1.175 1.255-1.5 2.137a8.172 8.172 0 0 0-.487 2.851c0 1.02.162 1.967.487 2.842.325.874.824 1.58 1.5 2.116.675.537 1.536.805 2.583.805Zm12.838-7.392v9.181h-2.345v-15.262h2.265v2.385h.199c.357-.776.9-1.399 1.629-1.868.729-.478 1.669-.716 2.822-.716 1.033 0 1.936.212 2.711.636.776.418 1.378 1.053 1.809 1.908.43.848.645 1.92.645 3.219v9.698h-2.345v-9.539c0-1.199-.31-2.133-.933-2.802-.622-.675-1.477-1.013-2.564-1.013-.748 0-1.416.162-2.006.487a3.485 3.485 0 0 0-1.381 1.421c-.337.622-.506 1.377-.506 2.265Zm20.814-6.081v1.987h-8.225v-1.987h8.225Zm-5.761 15.262v-17.368c0-.875.205-1.604.616-2.187a3.818 3.818 0 0 1 1.599-1.311 5.046 5.046 0 0 1 2.077-.438c.575 0 1.046.046 1.409.139.365.093.637.179.816.259l-.676 2.027a12 12 0 0 0-.496-.149c-.206-.06-.478-.089-.815-.089-.775 0-1.335.195-1.679.585-.338.391-.507.965-.507 1.719v16.813h-2.344Zm9.048 0v-15.262h2.343v15.262h-2.343Zm1.191-17.806a1.67 1.67 0 0 1-1.182-.467 1.502 1.502 0 0 1-.486-1.123 1.5 1.5 0 0 1 .486-1.122 1.666 1.666 0 0 1 1.182-.468c.457 0 .848.156 1.172.468.332.311.497.685.497 1.122 0 .438-.165.811-.497 1.123a1.632 1.632 0 0 1-1.172.467Zm11.208 18.123c-1.27 0-2.393-.32-3.367-.963-.974-.649-1.735-1.563-2.284-2.742-.55-1.186-.826-2.587-.826-4.203 0-1.604.276-2.995.826-4.173.549-1.179 1.314-2.091 2.294-2.733.981-.643 2.113-.964 3.397-.964.994 0 1.779.165 2.355.497.583.325 1.026.695 1.331 1.112.312.411.554.75.726 1.014h.198v-7.511h2.344v20.349h-2.265v-2.345h-.277c-.172.278-.418.629-.736 1.054-.318.416-.771.791-1.361 1.122-.589.325-1.374.486-2.355.486Zm.319-2.106c.94 0 1.735-.245 2.384-.735.65-.496 1.142-1.183 1.48-2.057.338-.881.507-1.898.507-3.05 0-1.139-.166-2.137-.497-2.991-.331-.861-.821-1.53-1.47-2.008-.649-.482-1.451-.724-2.404-.724-.994 0-1.821.255-2.484.764-.655.504-1.149 1.189-1.48 2.057-.325.861-.487 1.829-.487 2.902 0 1.086.166 2.073.497 2.961.337.881.834 1.583 1.49 2.106.663.517 1.484.775 2.464.775Zm17.693 2.106c-1.47 0-2.739-.323-3.805-.973-1.059-.655-1.877-1.57-2.454-2.742-.569-1.179-.854-2.55-.854-4.114 0-1.563.285-2.941.854-4.133.577-1.2 1.378-2.134 2.404-2.802 1.034-.676 2.239-1.014 3.617-1.014.794 0 1.579.132 2.354.397.775.266 1.48.696 2.116 1.292.636.59 1.143 1.371 1.519 2.345.378.974.567 2.173.567 3.597v.993h-11.762v-2.026h9.378c0-.862-.172-1.63-.517-2.306a3.894 3.894 0 0 0-1.45-1.6c-.623-.39-1.358-.585-2.205-.585-.934 0-1.743.232-2.424.695a4.569 4.569 0 0 0-1.56 1.788 5.262 5.262 0 0 0-.546 2.365v1.352c0 1.153.199 2.129.595 2.931.405.795.964 1.401 1.68 1.818.715.411 1.545.616 2.493.616a5.08 5.08 0 0 0 1.669-.258 3.566 3.566 0 0 0 1.301-.795c.365-.357.646-.802.845-1.331l2.265.635a5.02 5.02 0 0 1-1.203 2.028c-.562.576-1.258 1.026-2.086 1.351-.827.318-1.758.476-2.791.476Zm12.229-9.498v9.181h-2.344v-15.262h2.265v2.385h.199c.357-.776.9-1.399 1.628-1.868.729-.478 1.67-.716 2.822-.716 1.033 0 1.937.212 2.712.636.775.418 1.378 1.053 1.808 1.908.43.848.646 1.92.646 3.219v9.698h-2.345v-9.539c0-1.199-.311-2.133-.933-2.802-.623-.675-1.478-1.013-2.564-1.013-.748 0-1.417.162-2.006.487a3.479 3.479 0 0 0-1.381 1.421c-.338.622-.507 1.377-.507 2.265Zm20.656-6.081v1.987h-7.908v-1.987h7.908Zm-5.603-3.657h2.344v14.547c0 .662.097 1.159.289 1.491.199.324.451.542.754.655.312.106.64.159.984.159.258 0 .47-.013.636-.04l.398-.079.476 2.107a4.934 4.934 0 0 1-.665.179 4.928 4.928 0 0 1-1.083.098 4.72 4.72 0 0 1-1.948-.426 3.882 3.882 0 0 1-1.569-1.302c-.411-.583-.616-1.318-.616-2.206v-15.183Zm11.802-1.43v20.349h-2.344v-20.349h2.344Zm5.805 26.073c-.398 0-.753-.034-1.063-.1-.312-.06-.527-.119-.647-.179l.597-2.067c.569.146 1.073.199 1.509.159.438-.04.826-.235 1.163-.586.344-.344.659-.904.944-1.679l.437-1.192-5.643-15.342h2.544l4.211 12.162h.16l4.211-12.162h2.544l-6.477 17.488c-.292.788-.653 1.44-1.083 1.957-.431.523-.93.911-1.5 1.163-.563.252-1.199.378-1.907.378ZM97.126 158.862v-34.885h25.136v7.631h-15.668v5.996h14.374v7.63h-14.374v5.996h15.6v7.632H97.125Zm39.37-14.718v14.718h-9.401v-26.164h8.923v4.973h.273c.567-1.657 1.566-2.957 2.997-3.9 1.442-.942 3.122-1.414 5.042-1.414 1.85 0 3.457.426 4.819 1.277 1.374.841 2.435 1.999 3.185 3.476.76 1.476 1.135 3.162 1.124 5.058v16.694h-9.401v-14.718c.011-1.294-.318-2.31-.988-3.049-.659-.737-1.578-1.107-2.759-1.107-.772 0-1.447.171-2.026.512-.568.328-1.005.806-1.312 1.431-.307.612-.465 1.351-.476 2.213Zm28.891 15.127c-1.668 0-3.144-.273-4.427-.818-1.272-.556-2.271-1.397-2.997-2.521-.728-1.124-1.09-2.555-1.09-4.293 0-1.43.243-2.651.732-3.662a6.591 6.591 0 0 1 2.043-2.504c.874-.647 1.89-1.141 3.048-1.482 1.17-.341 2.43-.561 3.781-.664 1.465-.113 2.64-.25 3.526-.409.896-.17 1.544-.403 1.941-.699a1.45 1.45 0 0 0 .596-1.209v-.068c0-.681-.261-1.204-.784-1.567-.521-.363-1.192-.545-2.009-.545-.897 0-1.629.199-2.197.596-.556.386-.891.983-1.005 1.789h-8.651a8.93 8.93 0 0 1 1.515-4.395c.91-1.351 2.231-2.43 3.969-3.237 1.737-.817 3.905-1.226 6.505-1.226 1.873 0 3.554.222 5.042.665 1.486.431 2.753 1.039 3.797 1.822 1.044.772 1.84 1.68 2.384 2.726a6.992 6.992 0 0 1 .835 3.372v17.92h-8.788v-3.68h-.204c-.522.977-1.159 1.766-1.908 2.368a7.035 7.035 0 0 1-2.537 1.312c-.942.272-1.981.409-3.117.409Zm3.066-5.928a4.65 4.65 0 0 0 2.01-.443 3.884 3.884 0 0 0 1.549-1.278c.398-.556.597-1.232.597-2.027v-2.18c-.25.102-.517.199-.801.29a16.568 16.568 0 0 1-1.873.476c-.341.068-.698.131-1.073.188-.727.113-1.323.301-1.788.562-.455.25-.796.562-1.023.937a2.361 2.361 0 0 0-.323 1.226c0 .727.256 1.283.766 1.669.512.387 1.164.58 1.959.58Zm17.843 5.519v-34.885h9.401v13.286h.136a7.892 7.892 0 0 1 1.499-2.436c.658-.749 1.476-1.346 2.453-1.788.976-.455 2.112-.682 3.406-.682 1.725 0 3.366.46 4.921 1.38 1.567.92 2.839 2.368 3.815 4.343.988 1.977 1.481 4.543 1.481 7.7 0 3.021-.47 5.524-1.412 7.512-.931 1.986-2.18 3.468-3.747 4.446a9.46 9.46 0 0 1-5.126 1.465c-1.226 0-2.322-.199-3.288-.597a7.575 7.575 0 0 1-2.451-1.652 7.633 7.633 0 0 1-1.551-2.385h-.204v4.293h-9.333Zm9.196-13.082c0 1.272.165 2.373.495 3.305.341.919.817 1.634 1.431 2.145.624.5 1.367.75 2.231.75.862 0 1.594-.244 2.196-.733.613-.5 1.079-1.209 1.396-2.128.33-.932.494-2.045.494-3.339 0-1.295-.164-2.402-.494-3.322-.317-.931-.783-1.641-1.396-2.129-.602-.5-1.334-.75-2.196-.75-.864 0-1.607.25-2.231.75-.614.488-1.09 1.198-1.431 2.129-.33.92-.495 2.027-.495 3.322Zm31.252-21.803v34.885h-9.401v-34.885h9.401Zm17.323 35.362c-2.792 0-5.199-.534-7.22-1.601a11.224 11.224 0 0 1-4.649-4.634c-1.079-2.021-1.619-4.44-1.619-7.256 0-2.703.546-5.065 1.636-7.086 1.09-2.022 2.627-3.595 4.615-4.719 1.987-1.124 4.331-1.686 7.033-1.686 1.976 0 3.764.307 5.365.92 1.6.613 2.969 1.504 4.104 2.675 1.135 1.158 2.009 2.566 2.623 4.224.613 1.658.92 3.525.92 5.604v2.18h-23.366v-5.178h14.714c-.011-.75-.204-1.408-.579-1.976a3.693 3.693 0 0 0-1.482-1.346c-.613-.33-1.311-.493-2.095-.493-.76 0-1.458.163-2.094.493a3.952 3.952 0 0 0-1.532 1.328c-.375.569-.574 1.232-.597 1.994v5.587c0 .84.176 1.59.529 2.249a3.815 3.815 0 0 0 1.515 1.549c.659.375 1.453.562 2.384.562a5.49 5.49 0 0 0 1.772-.272 3.994 3.994 0 0 0 1.395-.783c.387-.353.671-.773.853-1.261h8.583c-.296 1.816-.994 3.395-2.095 4.735-1.101 1.328-2.561 2.362-4.377 3.1-1.806.727-3.917 1.091-6.336 1.091Zm27.236 9.334v-35.975h4.974v4.241h.425c.295-.545.721-1.175 1.277-1.891.557-.715 1.329-1.34 2.316-1.873.988-.545 2.294-.818 3.918-.818 2.111 0 3.996.534 5.654 1.601 1.657 1.067 2.957 2.606 3.899 4.617.954 2.009 1.431 4.428 1.431 7.256 0 2.827-.471 5.252-1.414 7.273-.942 2.01-2.236 3.56-3.882 4.651-1.647 1.078-3.525 1.617-5.637 1.617-1.59 0-2.89-.266-3.9-.8-.999-.534-1.783-1.158-2.351-1.874-.567-.715-1.004-1.351-1.311-1.907h-.306v13.882h-5.093Zm4.991-22.893c0 1.84.266 3.451.8 4.838.534 1.385 1.306 2.469 2.316 3.252 1.01.773 2.248 1.158 3.713 1.158 1.521 0 2.792-.402 3.814-1.209 1.022-.817 1.795-1.924 2.316-3.321.534-1.396.801-2.969.801-4.718 0-1.726-.261-3.277-.784-4.651-.51-1.374-1.283-2.458-2.316-3.253-1.022-.795-2.299-1.192-3.831-1.192-1.476 0-2.725.38-3.747 1.141-1.01.761-1.777 1.822-2.299 3.185-.523 1.363-.783 2.953-.783 4.77Zm35.627 13.609c-2.453 0-4.593-.561-6.42-1.685-1.829-1.125-3.247-2.698-4.258-4.719-1.011-2.022-1.516-4.383-1.516-7.086 0-2.714.505-5.088 1.516-7.12 1.011-2.033 2.429-3.612 4.258-4.736 1.827-1.124 3.967-1.686 6.42-1.686 2.452 0 4.592.562 6.42 1.686 1.828 1.124 3.248 2.703 4.258 4.736 1.011 2.032 1.515 4.406 1.515 7.12 0 2.703-.504 5.064-1.515 7.086-1.01 2.021-2.43 3.594-4.258 4.719-1.828 1.124-3.968 1.685-6.42 1.685Zm.017-4.275c1.59 0 2.907-.42 3.951-1.261 1.045-.84 1.817-1.958 2.317-3.355.51-1.396.766-2.935.766-4.616 0-1.669-.256-3.202-.766-4.599-.5-1.408-1.272-2.538-2.317-3.39-1.044-.852-2.361-1.278-3.951-1.278-1.6 0-2.929.426-3.985 1.278-1.044.852-1.823 1.982-2.333 3.39-.5 1.397-.75 2.93-.75 4.599 0 1.681.25 3.22.75 4.616.51 1.397 1.289 2.515 2.333 3.355 1.056.841 2.385 1.261 3.985 1.261Zm22.735 3.748-7.697-26.164h5.262l5.127 19.214h.254l5.144-19.214h5.262l5.11 19.129h.254l5.093-19.129h5.262l-7.68 26.164h-5.194l-5.314-18.891h-.392l-5.314 18.891h-5.177Zm44.382.527c-2.578 0-4.797-.55-6.659-1.651-1.851-1.114-3.282-2.675-4.292-4.685-.999-2.022-1.498-4.389-1.498-7.103 0-2.68.499-5.042 1.498-7.086 1.01-2.044 2.418-3.64 4.224-4.786 1.816-1.147 3.939-1.721 6.369-1.721 1.476 0 2.906.244 4.291.733a10.39 10.39 0 0 1 3.73 2.299c1.102 1.045 1.97 2.401 2.606 4.071.636 1.658.954 3.674.954 6.047v1.806h-20.795v-3.816h15.805c0-1.34-.273-2.527-.818-3.56a6.177 6.177 0 0 0-2.299-2.469c-.976-.603-2.123-.904-3.44-.904-1.431 0-2.68.352-3.747 1.057a7.074 7.074 0 0 0-2.452 2.725c-.568 1.113-.852 2.322-.852 3.628v2.981c0 1.749.307 3.237.92 4.463.625 1.226 1.493 2.163 2.606 2.81 1.112.637 2.412.954 3.9.954.965 0 1.845-.136 2.639-.408a5.7 5.7 0 0 0 2.061-1.261c.579-.556 1.021-1.244 1.328-2.061l4.82.868a8.728 8.728 0 0 1-2.078 3.731c-.987 1.056-2.23 1.879-3.729 2.47-1.488.579-3.185.868-5.092.868Zm16.873-.527v-26.164h4.921v4.156h.273c.477-1.408 1.317-2.515 2.52-3.322 1.215-.817 2.589-1.226 4.121-1.226.318 0 .693.011 1.124.034.443.023.789.051 1.039.085v4.872c-.204-.057-.567-.119-1.09-.187-.522-.08-1.044-.12-1.566-.12-1.204 0-2.276.256-3.22.766a5.713 5.713 0 0 0-2.214 2.096c-.544.885-.817 1.897-.817 3.032v15.978h-5.091Zm32.4-26.164v4.088h-14.783v-4.088h14.783Zm-10.73 26.164v-29.196c0-1.636.358-2.993 1.073-4.071a6.6 6.6 0 0 1 2.844-2.437c1.181-.544 2.464-.817 3.85-.817 1.021 0 1.895.085 2.622.256.727.159 1.266.307 1.618.443l-1.192 4.122a25.483 25.483 0 0 0-.92-.239c-.375-.102-.829-.153-1.362-.153-1.238 0-2.123.307-2.657.92-.522.613-.783 1.499-.783 2.658v28.514h-5.093Zm32.554-10.851v-15.313h5.109v26.164h-5.006v-4.531h-.273c-.602 1.396-1.567 2.56-2.896 3.492-1.317.919-2.957 1.38-4.921 1.38-1.681 0-3.168-.37-4.462-1.108-1.283-.749-2.293-1.856-3.032-3.321-.726-1.465-1.09-3.277-1.09-5.435v-16.641h5.093v16.029c0 1.783.493 3.202 1.481 4.258.988 1.056 2.27 1.584 3.849 1.584.954 0 1.901-.238 2.844-.716.954-.476 1.743-1.198 2.367-2.162.636-.966.949-2.193.937-3.68Zm17.043-24.034v34.885h-5.092v-34.885h5.092ZM47.359 231.34c-2.532 0-4.712-.574-6.54-1.72-1.817-1.159-3.213-2.754-4.19-4.787-.976-2.032-1.464-4.361-1.464-6.984 0-2.657.5-5.002 1.498-7.035 1-2.044 2.407-3.64 4.224-4.786 1.817-1.147 3.957-1.721 6.42-1.721 1.987 0 3.758.369 5.314 1.108 1.555.726 2.81 1.748 3.764 3.066.965 1.317 1.538 2.856 1.72 4.615h-4.956c-.273-1.226-.897-2.282-1.873-3.167-.966-.886-2.26-1.33-3.884-1.33-1.419 0-2.662.375-3.73 1.125-1.055.738-1.878 1.794-2.468 3.169-.59 1.363-.886 2.974-.886 4.837 0 1.908.29 3.555.868 4.94.58 1.385 1.397 2.458 2.453 3.22 1.067.76 2.322 1.141 3.764 1.141.965 0 1.839-.177 2.622-.529a5.34 5.34 0 0 0 1.993-1.55c.545-.669.925-1.476 1.14-2.418h4.957c-.182 1.692-.733 3.202-1.652 4.531-.92 1.328-2.152 2.373-3.696 3.134-1.533.76-3.332 1.141-5.398 1.141Zm27.21 0c-2.452 0-4.592-.562-6.42-1.686-1.828-1.124-3.248-2.697-4.258-4.719-1.01-2.021-1.516-4.383-1.516-7.086 0-2.714.505-5.087 1.516-7.12 1.01-2.033 2.43-3.611 4.257-4.736 1.829-1.124 3.969-1.686 6.42-1.686 2.453 0 4.594.562 6.42 1.686 1.83 1.125 3.248 2.703 4.26 4.736 1.01 2.033 1.515 4.406 1.515 7.12 0 2.703-.506 5.065-1.516 7.086-1.011 2.022-2.43 3.595-4.258 4.719-1.828 1.124-3.968 1.686-6.42 1.686Zm.016-4.275c1.59 0 2.907-.421 3.952-1.261 1.044-.841 1.816-1.959 2.316-3.356.51-1.396.766-2.935.766-4.616 0-1.669-.255-3.202-.766-4.599-.5-1.408-1.272-2.538-2.316-3.389-1.045-.853-2.362-1.278-3.952-1.278-1.6 0-2.929.425-3.984 1.278-1.045.851-1.822 1.981-2.334 3.389-.5 1.397-.75 2.93-.75 4.599 0 1.681.25 3.22.75 4.616.512 1.397 1.289 2.515 2.334 3.356 1.055.84 2.384 1.261 3.984 1.261Zm22.953-11.788v15.535h-5.091v-26.164h4.887v4.258h.324a7.473 7.473 0 0 1 2.827-3.338c1.294-.841 2.923-1.261 4.887-1.261 1.783 0 3.344.375 4.684 1.125 1.34.738 2.378 1.839 3.116 3.304.739 1.465 1.107 3.276 1.107 5.434v16.642h-5.092v-16.029c0-1.896-.494-3.378-1.482-4.446-.987-1.078-2.344-1.618-4.069-1.618-1.181 0-2.231.255-3.151.767-.909.511-1.63 1.26-2.163 2.248-.522.977-.784 2.158-.784 3.543Zm35.781-10.629v4.088h-14.288v-4.088h14.288Zm-10.456-6.268h5.091v24.749c0 .989.148 1.732.444 2.232.295.489.675.823 1.141 1.005.476.17.993.256 1.549.256.409 0 .767-.029 1.073-.086.307-.057.545-.102.716-.136l.919 4.207c-.295.114-.715.227-1.26.341-.545.125-1.227.193-2.044.205-1.34.022-2.589-.216-3.747-.716a6.422 6.422 0 0 1-2.809-2.316c-.716-1.045-1.073-2.356-1.073-3.935V198.38Zm27.082 32.96c-2.577 0-4.797-.551-6.658-1.652-1.852-1.113-3.281-2.674-4.293-4.685-.999-2.021-1.498-4.389-1.498-7.103 0-2.68.499-5.041 1.498-7.086 1.012-2.044 2.419-3.64 4.224-4.786 1.817-1.147 3.94-1.721 6.369-1.721 1.477 0 2.907.244 4.292.733a10.413 10.413 0 0 1 3.73 2.299c1.101 1.046 1.969 2.402 2.606 4.072.635 1.657.953 3.673.953 6.046v1.806h-20.794v-3.815h15.804c0-1.34-.273-2.527-.817-3.561a6.197 6.197 0 0 0-2.299-2.469c-.977-.603-2.123-.903-3.44-.903-1.431 0-2.68.351-3.747 1.056a7.091 7.091 0 0 0-2.453 2.725 7.876 7.876 0 0 0-.851 3.628v2.981c0 1.749.307 3.237.919 4.463.625 1.226 1.494 2.164 2.606 2.81 1.113.637 2.413.955 3.901.955.964 0 1.844-.136 2.639-.409a5.696 5.696 0 0 0 2.06-1.261c.58-.556 1.023-1.243 1.329-2.061l4.82.869a8.735 8.735 0 0 1-2.078 3.73c-.988 1.056-2.231 1.88-3.73 2.47-1.487.579-3.184.869-5.092.869Zm21.965-16.063v15.535h-5.092v-26.164h4.887v4.258h.324a7.48 7.48 0 0 1 2.828-3.338c1.293-.841 2.923-1.261 4.887-1.261 1.783 0 3.343.375 4.683 1.125 1.34.738 2.379 1.839 3.117 3.304.738 1.465 1.106 3.276 1.106 5.434v16.642h-5.091v-16.029c0-1.896-.494-3.378-1.482-4.446-.988-1.078-2.345-1.618-4.07-1.618-1.181 0-2.231.255-3.15.767-.909.511-1.63 1.26-2.163 2.248-.523.977-.784 2.158-.784 3.543Zm35.781-10.629v4.088h-14.289v-4.088h14.289Zm-10.457-6.268h5.092v24.749c0 .989.148 1.732.443 2.232.296.489.675.823 1.141 1.005.476.17.994.256 1.55.256.408 0 .766-.029 1.073-.086.306-.057.545-.102.715-.136l.92 4.207c-.296.114-.715.227-1.261.341-.544.125-1.226.193-2.043.205-1.34.022-2.589-.216-3.747-.716a6.425 6.425 0 0 1-2.81-2.316c-.716-1.045-1.073-2.356-1.073-3.935V198.38Zm28.781 32.432v-26.164h4.888v4.258h.324c.545-1.442 1.436-2.566 2.673-3.372 1.238-.818 2.72-1.227 4.445-1.227 1.749 0 3.214.409 4.394 1.227 1.192.817 2.073 1.941 2.64 3.372h.273c.624-1.396 1.617-2.509 2.98-3.338 1.362-.841 2.986-1.261 4.871-1.261 2.373 0 4.308.744 5.807 2.232 1.509 1.488 2.265 3.73 2.265 6.728v17.545h-5.092v-17.068c0-1.772-.482-3.055-1.447-3.849-.966-.796-2.119-1.193-3.458-1.193-1.658 0-2.946.511-3.866 1.533-.919 1.011-1.38 2.311-1.38 3.901v16.676h-5.074V213.42c0-1.419-.443-2.56-1.329-3.423-.885-.863-2.037-1.295-3.457-1.295-.965 0-1.856.255-2.674.767-.806.5-1.458 1.198-1.958 2.094-.488.898-.732 1.937-.732 3.118v16.131h-5.093Zm49.997.579c-1.658 0-3.156-.307-4.496-.92-1.34-.624-2.401-1.528-3.184-2.708-.773-1.181-1.158-2.629-1.158-4.344 0-1.476.284-2.691.851-3.645a6.292 6.292 0 0 1 2.299-2.266 12.026 12.026 0 0 1 3.236-1.26 32.209 32.209 0 0 1 3.645-.647l3.815-.443c.976-.125 1.685-.324 2.128-.597.443-.271.664-.715.664-1.328v-.12c0-1.487-.42-2.64-1.26-3.457-.829-.818-2.066-1.226-3.713-1.226-1.714 0-3.065.38-4.053 1.141-.976.749-1.651 1.584-2.026 2.504l-4.786-1.09c.568-1.59 1.397-2.873 2.487-3.849a10.069 10.069 0 0 1 3.798-2.147 14.793 14.793 0 0 1 4.513-.682c1.044 0 2.151.125 3.321.375a9.732 9.732 0 0 1 3.303 1.329c1.034.647 1.879 1.572 2.537 2.776.659 1.193.989 2.742.989 4.65v17.375h-4.973v-3.577h-.205c-.33.658-.823 1.306-1.482 1.941-.658.637-1.504 1.164-2.537 1.585-1.033.42-2.27.63-3.713.63Zm1.107-4.088c1.408 0 2.612-.278 3.611-.835 1.01-.556 1.776-1.283 2.299-2.18.533-.909.8-1.879.8-2.912v-3.373c-.182.181-.533.352-1.056.511-.511.148-1.095.277-1.753.391-.659.102-1.3.199-1.925.29-.624.079-1.147.147-1.567.204-.988.125-1.891.335-2.708.631-.806.294-1.453.721-1.941 1.277-.477.545-.716 1.272-.716 2.18 0 1.261.466 2.215 1.397 2.862.931.636 2.117.954 3.559.954Zm23.677-12.026v15.535h-5.093v-26.164h4.888v4.258h.324a7.472 7.472 0 0 1 2.827-3.338c1.294-.841 2.924-1.261 4.888-1.261 1.782 0 3.343.375 4.683 1.125 1.34.738 2.379 1.839 3.117 3.304.737 1.465 1.106 3.276 1.106 5.434v16.642h-5.091v-16.029c0-1.896-.494-3.378-1.482-4.446-.988-1.078-2.345-1.618-4.07-1.618-1.181 0-2.231.255-3.151.767-.908.511-1.629 1.26-2.163 2.248-.522.977-.783 2.158-.783 3.543Zm31.182 16.114c-1.657 0-3.156-.307-4.496-.92-1.339-.624-2.401-1.528-3.184-2.708-.772-1.181-1.159-2.629-1.159-4.344 0-1.476.285-2.691.852-3.645a6.292 6.292 0 0 1 2.299-2.266 12.039 12.039 0 0 1 3.236-1.26 32.231 32.231 0 0 1 3.644-.647l3.815-.443c.977-.125 1.686-.324 2.129-.597.443-.271.664-.715.664-1.328v-.12c0-1.487-.42-2.64-1.26-3.457-.829-.818-2.067-1.226-3.712-1.226-1.715 0-3.066.38-4.054 1.141-.977.749-1.652 1.584-2.027 2.504l-4.785-1.09c.568-1.59 1.396-2.873 2.486-3.849a10.076 10.076 0 0 1 3.798-2.147 14.803 14.803 0 0 1 4.513-.682c1.045 0 2.152.125 3.321.375a9.737 9.737 0 0 1 3.304 1.329c1.033.647 1.879 1.572 2.538 2.776.658 1.193.987 2.742.987 4.65v17.375h-4.973v-3.577h-.204c-.329.658-.823 1.306-1.481 1.941-.659.637-1.505 1.164-2.538 1.585-1.033.42-2.271.63-3.713.63Zm1.107-4.088c1.408 0 2.612-.278 3.611-.835 1.01-.556 1.777-1.283 2.299-2.18.534-.909.8-1.879.8-2.912v-3.373c-.181.181-.533.352-1.056.511-.51.148-1.096.277-1.754.391-.659.102-1.3.199-1.924.29-.625.079-1.146.147-1.567.204-.988.125-1.89.335-2.708.631-.806.294-1.453.721-1.941 1.277-.477.545-.715 1.272-.715 2.18 0 1.261.465 2.215 1.396 2.862.931.636 2.118.954 3.559.954Zm29.552 13.865c-2.077 0-3.865-.272-5.364-.817-1.488-.545-2.703-1.267-3.645-2.164-.942-.896-1.646-1.879-2.112-2.946l4.377-1.806c.307.5.716 1.028 1.226 1.584.523.568 1.227 1.051 2.112 1.448.897.398 2.049.596 3.457.596 1.93 0 3.526-.471 4.786-1.413 1.26-.932 1.89-2.42 1.89-4.463v-5.145h-.324c-.306.557-.749 1.176-1.327 1.857-.569.682-1.352 1.272-2.351 1.772-.999.5-2.299.749-3.9.749-2.066 0-3.928-.482-5.586-1.448-1.646-.976-2.951-2.413-3.916-4.31-.955-1.907-1.431-4.252-1.431-7.034 0-2.783.47-5.167 1.414-7.155.953-1.986 2.259-3.508 3.916-4.565 1.658-1.067 3.537-1.601 5.637-1.601 1.624 0 2.936.273 3.935.818.999.534 1.776 1.158 2.333 1.874.567.715 1.004 1.346 1.31 1.89h.375v-4.241h4.991v26.743c0 2.248-.523 4.094-1.568 5.536-1.044 1.442-2.458 2.509-4.24 3.203-1.772.692-3.77 1.038-5.995 1.038Zm-.051-14.973c1.465 0 2.703-.34 3.713-1.021 1.022-.693 1.793-1.681 2.316-2.964.533-1.295.8-2.845.8-4.651 0-1.759-.261-3.309-.783-4.649-.523-1.341-1.289-2.385-2.299-3.134-1.01-.762-2.259-1.142-3.747-1.142-1.532 0-2.81.397-3.831 1.193-1.022.783-1.795 1.85-2.316 3.201-.512 1.353-.767 2.862-.767 4.531 0 1.715.261 3.22.784 4.514.521 1.295 1.293 2.306 2.316 3.032 1.033.728 2.305 1.09 3.814 1.09Zm29.957 5.145c-2.578 0-4.797-.551-6.659-1.652-1.851-1.113-3.282-2.674-4.292-4.685-.999-2.021-1.498-4.389-1.498-7.103 0-2.68.499-5.041 1.498-7.086 1.01-2.044 2.418-3.64 4.224-4.786 1.816-1.147 3.939-1.721 6.369-1.721 1.476 0 2.906.244 4.291.733a10.404 10.404 0 0 1 3.73 2.299c1.102 1.046 1.97 2.402 2.606 4.072.636 1.657.954 3.673.954 6.046v1.806h-20.795v-3.815h15.805c0-1.34-.273-2.527-.818-3.561a6.183 6.183 0 0 0-2.299-2.469c-.976-.603-2.123-.903-3.44-.903-1.431 0-2.68.351-3.747 1.056a7.081 7.081 0 0 0-2.452 2.725c-.568 1.113-.852 2.322-.852 3.628v2.981c0 1.749.307 3.237.92 4.463.625 1.226 1.493 2.164 2.606 2.81 1.112.637 2.412.955 3.9.955.965 0 1.845-.136 2.639-.409a5.7 5.7 0 0 0 2.061-1.261c.579-.556 1.022-1.243 1.328-2.061l4.82.869a8.724 8.724 0 0 1-2.078 3.73c-.987 1.056-2.23 1.88-3.729 2.47-1.488.579-3.185.869-5.092.869Zm16.873-.528v-26.164h4.887v4.258h.324c.545-1.442 1.436-2.566 2.674-3.372 1.237-.818 2.718-1.227 4.445-1.227 1.748 0 3.213.409 4.393 1.227 1.193.817 2.072 1.941 2.64 3.372h.272c.625-1.396 1.618-2.509 2.981-3.338 1.362-.841 2.986-1.261 4.87-1.261 2.373 0 4.309.744 5.808 2.232 1.51 1.488 2.265 3.73 2.265 6.728v17.545h-5.092v-17.068c0-1.772-.483-3.055-1.448-3.849-.965-.796-2.117-1.193-3.457-1.193-1.657 0-2.946.511-3.866 1.533-.92 1.011-1.379 2.311-1.379 3.901v16.676h-5.076V213.42c0-1.419-.442-2.56-1.328-3.423-.886-.863-2.038-1.295-3.457-1.295-.965 0-1.856.255-2.674.767-.806.5-1.459 1.198-1.958 2.094-.488.898-.733 1.937-.733 3.118v16.131h-5.091Zm53.658.528c-2.578 0-4.797-.551-6.659-1.652-1.85-1.113-3.281-2.674-4.292-4.685-.999-2.021-1.499-4.389-1.499-7.103 0-2.68.5-5.041 1.499-7.086 1.011-2.044 2.419-3.64 4.224-4.786 1.816-1.147 3.94-1.721 6.369-1.721a12.8 12.8 0 0 1 4.292.733 10.409 10.409 0 0 1 3.729 2.299c1.101 1.046 1.971 2.402 2.606 4.072.635 1.657.954 3.673.954 6.046v1.806h-20.794v-3.815h15.804c0-1.34-.272-2.527-.818-3.561a6.176 6.176 0 0 0-2.299-2.469c-.976-.603-2.123-.903-3.44-.903-1.43 0-2.679.351-3.746 1.056a7.084 7.084 0 0 0-2.453 2.725c-.568 1.113-.851 2.322-.851 3.628v2.981c0 1.749.306 3.237.919 4.463.624 1.226 1.494 2.164 2.606 2.81 1.113.637 2.412.955 3.9.955.965 0 1.844-.136 2.64-.409a5.713 5.713 0 0 0 2.06-1.261c.579-.556 1.022-1.243 1.329-2.061l4.819.869a8.724 8.724 0 0 1-2.078 3.73c-.987 1.056-2.231 1.88-3.729 2.47-1.487.579-3.185.869-5.092.869Zm21.965-16.063v15.535h-5.093v-26.164h4.888v4.258h.324a7.479 7.479 0 0 1 2.827-3.338c1.294-.841 2.923-1.261 4.888-1.261 1.782 0 3.344.375 4.683 1.125 1.339.738 2.378 1.839 3.117 3.304.737 1.465 1.107 3.276 1.107 5.434v16.642h-5.093v-16.029c0-1.896-.493-3.378-1.481-4.446-.988-1.078-2.344-1.618-4.071-1.618-1.181 0-2.231.255-3.15.767-.908.511-1.63 1.26-2.163 2.248-.523.977-.783 2.158-.783 3.543Zm35.781-10.629v4.088h-14.289v-4.088h14.289Zm-10.457-6.268h5.092v24.749c0 .989.148 1.732.442 2.232.296.489.677.823 1.141 1.005.478.17.994.256 1.551.256a5.91 5.91 0 0 0 1.072-.086c.307-.057.545-.102.715-.136l.921 4.207c-.296.114-.716.227-1.261.341-.545.125-1.226.193-2.044.205-1.339.022-2.588-.216-3.746-.716a6.433 6.433 0 0 1-2.811-2.316c-.714-1.045-1.072-2.356-1.072-3.935V198.38ZM42.123 302.762l-7.97-26.163h4.224l5.654 20.031h.273l5.586-20.031h4.291l5.518 19.963h.273l5.654-19.963h4.224l-7.971 26.163h-3.951l-5.722-20.1h-.409l-5.722 20.1h-3.951Zm33.04 0v-26.163h4.018v26.163h-4.018Zm2.043-30.524a2.855 2.855 0 0 1-2.026-.801c-.556-.534-.834-1.175-.834-1.925 0-.749.278-1.391.834-1.924a2.855 2.855 0 0 1 2.026-.801 2.8 2.8 0 0 1 2.01.801c.568.533.852 1.175.852 1.924 0 .75-.284 1.391-.852 1.925a2.8 2.8 0 0 1-2.01.801Zm20.714 4.361v3.406H84.364v-3.406H97.92Zm-9.606-6.269h4.02v24.938c0 1.135.165 1.986.493 2.555.341.556.773.93 1.295 1.124a5.21 5.21 0 0 0 1.686.272c.442 0 .806-.022 1.09-.068l.681-.136.817 3.611a8.045 8.045 0 0 1-1.14.306c-.49.114-1.108.171-1.857.171a8.111 8.111 0 0 1-3.338-.732 6.637 6.637 0 0 1-2.69-2.232c-.705-.999-1.057-2.26-1.057-3.781V270.33Zm20.232 16.693v15.739h-4.019v-34.884h4.019v12.809h.341a7.406 7.406 0 0 1 2.759-3.22c1.238-.807 2.884-1.209 4.939-1.209 1.783 0 3.343.358 4.683 1.073 1.34.704 2.379 1.789 3.116 3.254.75 1.453 1.124 3.304 1.124 5.552v16.625h-4.018V286.41c0-2.078-.54-3.685-1.619-4.821-1.067-1.147-2.548-1.72-4.445-1.72-1.317 0-2.497.278-3.542.835-1.033.556-1.85 1.368-2.452 2.435-.59 1.068-.886 2.362-.886 3.884Z"/><path fill="url(#a)" d="M140.985 302.762v-34.884h15.055c2.588 0 4.854.47 6.795 1.413 1.942.943 3.451 2.3 4.53 4.071 1.078 1.772 1.618 3.895 1.618 6.37 0 2.499-.557 4.605-1.669 6.32-1.102 1.715-2.651 3.009-4.65 3.883-1.986.875-4.308 1.312-6.964 1.312h-8.992v-7.359h7.084c1.112 0 2.061-.135 2.844-.408.795-.284 1.403-.733 1.822-1.345.432-.614.648-1.414.648-2.403 0-.999-.216-1.81-.648-2.435-.419-.637-1.027-1.102-1.822-1.397-.783-.307-1.732-.46-2.844-.46h-3.338v27.322h-9.469Zm20.437-16.012 8.719 16.012h-10.286l-8.515-16.012h10.082Zm23.706 16.489c-2.793 0-5.2-.534-7.221-1.601a11.213 11.213 0 0 1-4.649-4.634c-1.079-2.02-1.618-4.44-1.618-7.256 0-2.703.545-5.064 1.635-7.086a11.678 11.678 0 0 1 4.615-4.718c1.987-1.125 4.331-1.686 7.034-1.686 1.975 0 3.763.307 5.364.919 1.601.614 2.969 1.505 4.104 2.675 1.135 1.158 2.01 2.566 2.623 4.224.613 1.658.919 3.526.919 5.604v2.181h-23.365v-5.178h14.714c-.011-.75-.204-1.408-.579-1.976a3.683 3.683 0 0 0-1.481-1.346c-.614-.33-1.312-.494-2.095-.494-.761 0-1.459.164-2.095.494a3.944 3.944 0 0 0-1.532 1.328c-.375.569-.574 1.232-.597 1.994v5.587c0 .84.176 1.59.528 2.248a3.837 3.837 0 0 0 1.515 1.55c.659.375 1.454.562 2.385.562.647 0 1.237-.091 1.771-.272a4.005 4.005 0 0 0 1.397-.784c.386-.352.67-.772.851-1.261h8.583c-.295 1.817-.993 3.396-2.094 4.736-1.101 1.328-2.561 2.361-4.377 3.1-1.805.726-3.917 1.09-6.335 1.09Zm42.35-26.64-8.787 26.163H207.79l-8.787-26.163h9.877l4.225 17.306h.272l4.224-17.306h9.877Zm2.674 26.163v-26.163h9.4v26.163h-9.4Zm4.7-28.889c-1.271 0-2.361-.42-3.27-1.261-.908-.84-1.362-1.85-1.362-3.032 0-1.181.454-2.191 1.362-3.032.909-.84 1.999-1.26 3.27-1.26 1.283 0 2.373.42 3.27 1.26.908.841 1.362 1.851 1.362 3.032 0 1.182-.454 2.192-1.362 3.032-.897.841-1.987 1.261-3.27 1.261Zm33.401 11.243h-8.651a2.372 2.372 0 0 0-.563-1.38 3.142 3.142 0 0 0-1.277-.886 4.325 4.325 0 0 0-1.702-.324c-.807 0-1.499.147-2.078.443-.58.295-.864.716-.852 1.26-.012.387.153.745.494 1.073.352.33 1.027.585 2.026.767l5.314.954c2.679.488 4.672 1.311 5.978 2.47 1.317 1.147 1.981 2.686 1.992 4.616-.011 1.862-.567 3.481-1.669 4.855-1.089 1.362-2.583 2.418-4.479 3.168-1.885.738-4.036 1.107-6.455 1.107-3.996 0-7.123-.817-9.383-2.453-2.248-1.635-3.502-3.793-3.764-6.473h9.333c.125.83.533 1.471 1.226 1.925.704.443 1.589.664 2.656.664.864 0 1.573-.147 2.129-.442.568-.296.858-.716.869-1.26-.011-.5-.261-.898-.75-1.193-.476-.295-1.226-.534-2.248-.716l-4.632-.817c-2.667-.466-4.665-1.352-5.994-2.658-1.328-1.306-1.987-2.986-1.975-5.041-.012-1.817.465-3.356 1.43-4.617.976-1.271 2.367-2.236 4.173-2.895 1.816-.67 3.967-1.005 6.454-1.005 3.78 0 6.761.783 8.941 2.35 2.191 1.567 3.343 3.737 3.457 6.508Zm4.283 17.646v-26.163h9.401v26.163h-9.401Zm4.701-28.889c-1.272 0-2.362-.42-3.27-1.261-.908-.84-1.363-1.85-1.363-3.032 0-1.181.455-2.191 1.363-3.032.908-.84 1.998-1.26 3.27-1.26 1.283 0 2.373.42 3.269 1.26.908.841 1.363 1.851 1.363 3.032 0 1.182-.455 2.192-1.363 3.032-.896.841-1.986 1.261-3.269 1.261Zm22.092 29.366c-2.838 0-5.268-.562-7.289-1.687-2.02-1.135-3.571-2.713-4.649-4.734-1.079-2.033-1.618-4.389-1.618-7.07 0-2.68.539-5.03 1.618-7.052 1.078-2.032 2.629-3.61 4.649-4.734 2.021-1.137 4.451-1.704 7.289-1.704 2.839 0 5.268.567 7.289 1.704a11.464 11.464 0 0 1 4.65 4.734c1.078 2.022 1.617 4.372 1.617 7.052 0 2.681-.539 5.037-1.617 7.07-1.079 2.021-2.629 3.599-4.65 4.734-2.021 1.125-4.45 1.687-7.289 1.687Zm.068-6.95c.795 0 1.482-.267 2.06-.801.58-.533 1.029-1.294 1.346-2.282.318-.987.477-2.163.477-3.526 0-1.374-.159-2.549-.477-3.526-.317-.987-.766-1.749-1.346-2.283a2.937 2.937 0 0 0-2.06-.8c-.84 0-1.561.267-2.163.8-.601.534-1.061 1.296-1.38 2.283-.317.977-.476 2.152-.476 3.526 0 1.363.159 2.539.476 3.526.319.988.779 1.749 1.38 2.282.602.534 1.323.801 2.163.801Zm26.704-8.244v14.717H316.7v-26.163h8.924v4.973h.273c.567-1.658 1.566-2.958 2.997-3.9 1.442-.943 3.122-1.414 5.041-1.414 1.85 0 3.457.425 4.819 1.277 1.374.84 2.435 1.998 3.185 3.475.761 1.476 1.136 3.162 1.124 5.059v16.693h-9.401v-14.717c.012-1.294-.318-2.311-.987-3.049-.659-.738-1.579-1.108-2.76-1.108-.771 0-1.447.171-2.026.512a3.28 3.28 0 0 0-1.312 1.431c-.306.613-.464 1.351-.476 2.214Zm31.021 14.717v-34.884h9.469v13.626h12.534v-13.626h9.469v34.884h-9.469v-13.627h-12.534v13.627h-9.469Zm36.104 0v-26.163h9.401v26.163h-9.401Zm4.7-28.889c-1.271 0-2.361-.42-3.269-1.261-.908-.84-1.363-1.85-1.363-3.032 0-1.181.455-2.191 1.363-3.032.908-.84 1.998-1.26 3.269-1.26 1.284 0 2.373.42 3.27 1.26.908.841 1.363 1.851 1.363 3.032 0 1.182-.455 2.192-1.363 3.032-.897.841-1.986 1.261-3.27 1.261Zm33.401 11.243h-8.651a2.379 2.379 0 0 0-.563-1.38 3.139 3.139 0 0 0-1.276-.886 4.338 4.338 0 0 0-1.704-.324c-.806 0-1.499.147-2.077.443-.58.295-.863.716-.852 1.26-.011.387.154.745.494 1.073.352.33 1.027.585 2.026.767l5.314.954c2.679.488 4.672 1.311 5.977 2.47 1.317 1.147 1.982 2.686 1.994 4.616-.012 1.862-.569 3.481-1.67 4.855-1.09 1.362-2.583 2.418-4.479 3.168-1.884.738-4.036 1.107-6.454 1.107-3.997 0-7.125-.817-9.384-2.453-2.248-1.635-3.503-3.793-3.763-6.473h9.332c.125.83.534 1.471 1.226 1.925.705.443 1.59.664 2.657.664.863 0 1.572-.147 2.129-.442.567-.296.857-.716.868-1.26-.011-.5-.261-.898-.749-1.193-.477-.295-1.226-.534-2.248-.716l-4.632-.817c-2.669-.466-4.667-1.352-5.995-2.658-1.329-1.306-1.987-2.986-1.975-5.041-.012-1.817.465-3.356 1.43-4.617.977-1.271 2.368-2.236 4.172-2.895 1.817-.67 3.968-1.005 6.455-1.005 3.781 0 6.761.783 8.941 2.35 2.191 1.567 3.343 3.737 3.457 6.508Zm19.883-8.517v6.813h-17.235v-6.813h17.235Zm-13.897-6.269h9.401v24.017c0 .364.063.671.187.921.125.237.318.419.579.544.262.114.596.171 1.005.171.284 0 .614-.034.988-.103.386-.068.67-.125.851-.17l1.363 6.61c-.42.125-1.022.278-1.805.459-.772.182-1.692.301-2.76.358-2.157.113-3.967-.108-5.432-.664-1.465-.568-2.566-1.459-3.304-2.675-.737-1.215-1.095-2.737-1.073-4.564V270.33Zm30.054 32.909c-2.838 0-5.267-.562-7.288-1.687-2.021-1.135-3.571-2.713-4.65-4.734-1.078-2.033-1.618-4.389-1.618-7.07 0-2.68.54-5.03 1.618-7.052a11.464 11.464 0 0 1 4.65-4.734c2.021-1.137 4.45-1.704 7.288-1.704 2.839 0 5.269.567 7.29 1.704 2.02 1.124 3.571 2.702 4.649 4.734 1.079 2.022 1.617 4.372 1.617 7.052 0 2.681-.538 5.037-1.617 7.07-1.078 2.021-2.629 3.599-4.649 4.734-2.021 1.125-4.451 1.687-7.29 1.687Zm.068-6.95c.796 0 1.482-.267 2.061-.801.579-.533 1.028-1.294 1.346-2.282.318-.987.477-2.163.477-3.526 0-1.374-.159-2.549-.477-3.526-.318-.987-.767-1.749-1.346-2.283a2.94 2.94 0 0 0-2.061-.8c-.839 0-1.56.267-2.162.8-.602.534-1.062 1.296-1.38 2.283-.317.977-.476 2.152-.476 3.526 0 1.363.159 2.539.476 3.526.318.988.778 1.749 1.38 2.282.602.534 1.323.801 2.162.801Zm17.304 6.473v-26.163h9.128v4.973h.273c.476-1.84 1.231-3.185 2.265-4.037 1.044-.852 2.265-1.277 3.661-1.277.409 0 .812.034 1.209.102.409.057.801.142 1.175.255v8.023c-.465-.159-1.039-.278-1.72-.358a15.583 15.583 0 0 0-1.754-.119c-.92 0-1.748.21-2.486.631-.727.409-1.3.987-1.721 1.737-.42.738-.629 1.607-.629 2.606v13.627h-9.401Zm27.312 9.812a17.87 17.87 0 0 1-3.083-.256c-.976-.159-1.833-.38-2.571-.665l2.044-6.676c.771.272 1.476.448 2.111.528.648.079 1.198.034 1.653-.136.465-.171.8-.495 1.004-.972l.204-.476-9.196-27.322h9.81l4.223 18.123h.273l4.291-18.123h9.877l-9.536 28.344a12.549 12.549 0 0 1-2.078 3.883c-.896 1.158-2.077 2.073-3.542 2.742-1.465.671-3.293 1.006-5.484 1.006Z"/><path fill="#00C0CD" d="M222.124 559.463a3.953 3.953 0 0 0-.551-1.221 3.482 3.482 0 0 0-.89-.913 3.823 3.823 0 0 0-1.21-.562 5.353 5.353 0 0 0-1.497-.198c-1.092 0-2.038.265-2.837.793-.791.527-1.404 1.298-1.836 2.31-.433 1.004-.65 2.225-.65 3.663 0 1.444.21 2.677.628 3.696.417 1.02 1.023 1.797 1.814 2.332.792.536 1.752.804 2.881.804.999 0 1.842-.162 2.53-.485.698-.33 1.225-.795 1.585-1.397.358-.601.538-1.309.538-2.123l1.012.121h-5.477v-3.971h9.712v2.981c0 2.017-.429 3.744-1.287 5.181a8.548 8.548 0 0 1-3.52 3.312c-1.488.77-3.2 1.155-5.137 1.155-2.148 0-4.036-.465-5.664-1.398-1.627-.931-2.896-2.258-3.805-3.982-.909-1.731-1.364-3.784-1.364-6.16 0-1.848.275-3.487.825-4.917.55-1.438 1.316-2.655 2.298-3.653a9.936 9.936 0 0 1 3.432-2.266c1.305-.514 2.71-.77 4.213-.77 1.305 0 2.518.187 3.64.561a9.741 9.741 0 0 1 2.993 1.584 8.417 8.417 0 0 1 2.122 2.431c.542.94.88 1.97 1.012 3.092h-5.51Zm16.858 15.489c-1.768 0-3.292-.348-4.576-1.045a7.234 7.234 0 0 1-2.948-3.004c-.681-1.305-1.023-2.856-1.023-4.653 0-1.745.345-3.27 1.034-4.576.69-1.313 1.661-2.333 2.915-3.058 1.254-.734 2.731-1.101 4.433-1.101 1.202 0 2.302.187 3.299.561a7.094 7.094 0 0 1 2.585 1.662c.726.733 1.291 1.639 1.694 2.717.403 1.07.605 2.299.605 3.685v1.343h-14.683v-3.125h9.678a3.026 3.026 0 0 0-.407-1.529 2.754 2.754 0 0 0-1.089-1.046c-.454-.256-.979-.384-1.572-.384-.602 0-1.14.136-1.617.406a3.01 3.01 0 0 0-1.133 1.09 3.06 3.06 0 0 0-.439 1.551v3.179c0 .69.135 1.295.406 1.815.271.514.657.914 1.155 1.199.499.286 1.092.43 1.782.43.476 0 .909-.067 1.298-.199a2.788 2.788 0 0 0 1.001-.582c.278-.257.487-.573.626-.947l4.939.143a6.117 6.117 0 0 1-1.353 2.894c-.689.814-1.595 1.448-2.717 1.903-1.122.448-2.42.671-3.893.671Zm20.301-17.217v3.961h-10.658v-3.961h10.658Zm-8.426-4.048h5.38v15.632c0 .33.05.598.153.804a.96.96 0 0 0 .473.428c.206.081.451.121.737.121.205 0 .422-.018.649-.055.234-.044.41-.081.528-.11l.814 3.884c-.257.073-.62.165-1.089.275a9.025 9.025 0 0 1-1.661.208c-1.261.059-2.343-.088-3.244-.439-.895-.359-1.581-.917-2.057-1.672-.47-.756-.697-1.705-.683-2.849v-16.227Zm17.824 20.946v-16.898h5.379v16.898h-5.379Zm2.695-18.866c-.755 0-1.405-.25-1.947-.749-.543-.506-.813-1.114-.813-1.826 0-.704.27-1.306.813-1.804a2.755 2.755 0 0 1 1.947-.759c.762 0 1.412.253 1.946.759.543.498.815 1.1.815 1.804 0 .712-.272 1.32-.815 1.826-.534.499-1.184.749-1.946.749Zm15.643 1.968v3.961h-10.658v-3.961h10.658Zm-8.425-4.048h5.378v15.632c0 .33.052.598.155.804.11.198.267.34.472.428.205.081.451.121.737.121.206 0 .421-.018.649-.055.235-.044.411-.081.528-.11l.814 3.884c-.257.073-.62.165-1.089.275a9.013 9.013 0 0 1-1.661.208c-1.26.059-2.343-.088-3.245-.439-.894-.359-1.579-.917-2.056-1.672-.469-.756-.696-1.705-.682-2.849v-16.227Zm23.202 11.309v9.637h-5.378v-16.898h5.113v3.103h.188c.374-1.034 1.011-1.845 1.913-2.431.903-.595 1.977-.892 3.224-.892 1.188 0 2.218.268 3.09.804.88.527 1.562 1.268 2.046 2.221.491.947.732 2.054.725 3.323v10.77h-5.378v-9.714c.007-.939-.231-1.673-.715-2.2-.477-.528-1.14-.793-1.99-.793-.565 0-1.063.125-1.496.375a2.481 2.481 0 0 0-.99 1.045c-.228.455-.345 1.005-.352 1.65Zm22.137 9.956c-1.774 0-3.299-.363-4.574-1.089a7.515 7.515 0 0 1-2.938-3.059c-.681-1.312-1.023-2.834-1.023-4.565 0-1.738.342-3.259 1.023-4.565a7.421 7.421 0 0 1 2.938-3.058c1.275-.734 2.8-1.101 4.574-1.101 1.775 0 3.297.367 4.565 1.101a7.333 7.333 0 0 1 2.937 3.058c.689 1.306 1.034 2.827 1.034 4.565 0 1.731-.345 3.253-1.034 4.565a7.424 7.424 0 0 1-2.937 3.059c-1.268.726-2.79 1.089-4.565 1.089Zm.033-4.06c.646 0 1.192-.198 1.639-.593.448-.396.788-.947 1.023-1.65.242-.705.363-1.519.363-2.443 0-.939-.121-1.76-.363-2.464-.235-.704-.575-1.254-1.023-1.65-.447-.396-.993-.594-1.639-.594-.667 0-1.231.198-1.693.594-.455.396-.803.946-1.045 1.65-.235.704-.352 1.525-.352 2.464 0 .924.117 1.738.352 2.443.242.703.59 1.254 1.045 1.65.462.395 1.026.593 1.693.593Zm14.052 3.741-4.4-16.898h5.4l2.277 10.826h.143l2.442-10.826h5.268l2.508 10.749h.143l2.211-10.749h5.4L355 574.633h-5.753l-2.64-9.846h-.186l-2.64 9.846h-5.763Z"/><path fill="#fff" d="M54.787 610.608v-14.172h3.93v14.172h-3.93Zm1.974-15.999a2.137 2.137 0 0 1-1.503-.581c-.412-.393-.618-.864-.618-1.412 0-.541.206-1.005.618-1.393.418-.394.92-.59 1.503-.59.585 0 1.083.196 1.495.59.418.388.627.852.627 1.393 0 .548-.209 1.019-.627 1.412-.412.387-.91.581-1.495.581Zm9.034 7.805v8.194h-3.93v-14.172h3.745v2.501h.166a3.952 3.952 0 0 1 1.578-1.957c.738-.485 1.633-.728 2.685-.728.984 0 1.841.215 2.573.645.732.431 1.301 1.047 1.707 1.846.405.793.608 1.741.608 2.841v9.024h-3.93v-8.322c.007-.868-.215-1.544-.664-2.03-.448-.493-1.067-.739-1.854-.739-.529 0-.996.114-1.402.342-.4.228-.713.56-.941.997-.22.43-.335.95-.34 1.558Zm25.778-5.978v2.953h-8.532v-2.953h8.532Zm-6.596-3.395h3.93v13.212c0 .364.056.646.167.849.11.197.264.335.461.415.203.08.437.12.7.12.186 0 .37-.015.554-.046.185-.037.326-.065.425-.083l.618 2.925c-.197.061-.473.132-.83.212a6.63 6.63 0 0 1-1.3.157c-.948.037-1.778-.089-2.492-.378-.707-.29-1.257-.739-1.651-1.347-.394-.61-.588-1.378-.582-2.308v-13.728Zm13.39 9.373v8.194h-3.93v-18.896h3.82v7.225h.165c.321-.838.838-1.492 1.551-1.966.713-.479 1.608-.719 2.684-.719.984 0 1.842.215 2.573.645.739.425 1.31 1.037 1.717 1.836.411.794.614 1.745.608 2.851v9.024h-3.929v-8.322c.006-.874-.216-1.553-.665-2.039-.442-.487-1.064-.73-1.863-.73-.534 0-1.008.114-1.42.342-.406.228-.726.56-.96.997-.228.43-.344.95-.35 1.558Zm18.739 8.471c-1.458 0-2.713-.295-3.765-.886a6.07 6.07 0 0 1-2.417-2.528c-.565-1.095-.848-2.389-.848-3.884 0-1.458.283-2.737.848-3.839.567-1.101 1.363-1.958 2.39-2.574 1.033-.615 2.244-.922 3.635-.922.934 0 1.804.151 2.61.451a5.812 5.812 0 0 1 2.122 1.338c.608.597 1.082 1.348 1.421 2.252.337.898.507 1.95.507 3.156v1.079h-11.964v-2.436h8.264c0-.566-.123-1.068-.368-1.504a2.655 2.655 0 0 0-1.024-1.025c-.431-.251-.932-.377-1.504-.377-.597 0-1.125.138-1.587.414a2.924 2.924 0 0 0-1.07 1.099c-.257.455-.39.962-.396 1.523v2.315c0 .701.129 1.307.387 1.818.265.51.637.904 1.116 1.181.48.277 1.049.415 1.707.415.436 0 .836-.061 1.199-.184.363-.124.673-.308.932-.554.258-.247.455-.547.59-.904l3.635.24a4.975 4.975 0 0 1-1.135 2.288c-.565.646-1.298 1.15-2.195 1.513-.892.357-1.922.535-3.09.535Zm14.434-15.879v-3.294h15.516v3.294h-5.784v15.602h-3.948v-15.602h-5.784Zm17.997 15.602v-14.172h3.931v14.172h-3.931Zm1.974-15.999a2.136 2.136 0 0 1-1.503-.581c-.412-.393-.618-.864-.618-1.412 0-.541.206-1.005.618-1.393.418-.394.919-.59 1.503-.59.585 0 1.082.196 1.495.59.418.388.627.852.627 1.393 0 .548-.209 1.019-.627 1.412-.413.387-.91.581-1.495.581Zm9.033 7.805v8.194h-3.929v-14.172h3.746v2.501h.165a3.956 3.956 0 0 1 1.578-1.957c.738-.485 1.633-.728 2.685-.728.984 0 1.841.215 2.573.645.732.431 1.3 1.047 1.707 1.846.405.793.608 1.741.608 2.841v9.024h-3.929v-8.322c.006-.868-.216-1.544-.665-2.03-.448-.493-1.067-.739-1.854-.739-.529 0-.996.114-1.402.342-.399.228-.713.56-.941.997-.221.43-.335.95-.342 1.558Zm14.15 13.508c-.499 0-.966-.04-1.403-.12a5.04 5.04 0 0 1-1.07-.286l.885-2.934c.462.142.877.219 1.246.231.375.012.698-.074.968-.259.277-.183.502-.497.674-.94l.23-.6-5.082-14.578h4.132l2.934 10.407h.148l2.961-10.407h4.16l-5.507 15.704a6.601 6.601 0 0 1-1.079 1.992 4.419 4.419 0 0 1-1.707 1.32c-.689.314-1.519.47-2.49.47Zm12.868-24.21h4.926l5.202 12.696h.222l5.203-12.696h4.926v18.896h-3.874v-12.299h-.157l-4.89 12.207h-2.637l-4.89-12.253h-.157v12.345h-3.874v-18.896Zm40.439 6.615h-4.041a3.951 3.951 0 0 0-.451-1.393 3.558 3.558 0 0 0-.877-1.051 3.84 3.84 0 0 0-1.236-.665 4.75 4.75 0 0 0-1.503-.23c-.978 0-1.83.242-2.556.728-.725.48-1.288 1.181-1.688 2.104-.4.917-.6 2.03-.6 3.34 0 1.347.2 2.479.6 3.395.406.917.972 1.609 1.697 2.077.726.467 1.566.701 2.519.701.535 0 1.03-.071 1.485-.213.461-.141.87-.348 1.226-.617.358-.277.653-.613.887-1.007a3.92 3.92 0 0 0 .497-1.347l4.041.019a7.302 7.302 0 0 1-.784 2.51 7.57 7.57 0 0 1-1.669 2.149c-.696.628-1.526 1.126-2.491 1.495-.96.363-2.045.545-3.257.545-1.685 0-3.191-.382-4.52-1.145-1.322-.762-2.368-1.866-3.136-3.312-.763-1.445-1.144-3.195-1.144-5.25 0-2.06.387-3.814 1.162-5.259.775-1.446 1.827-2.546 3.155-3.303 1.329-.763 2.822-1.144 4.483-1.144 1.095 0 2.11.154 3.044.461a7.691 7.691 0 0 1 2.5 1.347 6.905 6.905 0 0 1 1.771 2.15c.462.849.757 1.821.886 2.915Zm2.864 12.281v-18.896h12.731v3.294h-8.737v4.502h8.081v3.294h-8.081v4.512h8.774v3.294h-12.768Zm33.634-10.13-3.598.221a1.863 1.863 0 0 0-.396-.831 2.113 2.113 0 0 0-.803-.599c-.326-.154-.717-.231-1.172-.231-.608 0-1.122.129-1.54.388-.419.251-.628.59-.628 1.015 0 .338.136.623.406.857.271.234.735.422 1.394.563l2.564.517c1.377.283 2.404.738 3.081 1.366.676.627 1.015 1.452 1.015 2.472 0 .929-.274 1.744-.821 2.445-.542.702-1.285 1.249-2.232 1.643-.942.387-2.027.581-3.258.581-1.875 0-3.37-.391-4.483-1.172-1.107-.787-1.755-1.857-1.946-3.21l3.866-.203c.117.571.399 1.008.848 1.31.449.295 1.024.443 1.725.443.689 0 1.242-.133 1.661-.397.424-.271.639-.619.645-1.043a1.085 1.085 0 0 0-.451-.877c-.296-.234-.75-.412-1.366-.534l-2.454-.49c-1.384-.277-2.414-.757-3.09-1.439-.67-.683-1.005-1.553-1.005-2.611 0-.911.246-1.695.737-2.353.499-.658 1.196-1.166 2.094-1.523.905-.356 1.963-.534 3.174-.534 1.79 0 3.198.377 4.225 1.134 1.033.757 1.635 1.788 1.808 3.092Zm11.884 4.096v-8.138h3.929v14.172h-3.772v-2.574h-.148a4.186 4.186 0 0 1-1.596 2.002c-.738.505-1.638.757-2.703.757-.947 0-1.78-.215-2.499-.646-.721-.431-1.283-1.043-1.689-1.837-.399-.793-.602-1.743-.608-2.851v-9.023h3.929v8.323c.006.836.231 1.497.674 1.983.442.486 1.036.729 1.78.729.474 0 .916-.108 1.328-.323.413-.222.744-.547.996-.978.259-.431.385-.962.379-1.596Zm7.146 6.034v-18.896h3.93v7.105h.121c.172-.382.42-.77.746-1.163.333-.4.763-.732 1.292-.997.535-.27 1.199-.405 1.992-.405 1.033 0 1.986.27 2.861.811.873.536 1.57 1.344 2.093 2.427.523 1.077.784 2.427.784 4.051 0 1.581-.255 2.915-.765 4.004-.505 1.082-1.193 1.904-2.066 2.463-.868.554-1.84.831-2.916.831-.762 0-1.412-.126-1.946-.378a4.066 4.066 0 0 1-1.301-.95 4.827 4.827 0 0 1-.774-1.173h-.176v2.27h-3.875Zm3.847-7.086c0 .843.117 1.578.351 2.205.233.628.572 1.116 1.015 1.467.442.345.981.517 1.614.517.64 0 1.18-.175 1.624-.526.442-.357.777-.849 1.005-1.476.234-.633.351-1.363.351-2.187 0-.818-.114-1.537-.342-2.159-.227-.621-.563-1.107-1.005-1.458-.443-.351-.987-.525-1.633-.525-.64 0-1.181.168-1.623.507-.437.338-.773.818-1.006 1.439-.234.622-.351 1.353-.351 2.196Zm24.383-3.044-3.597.221a1.853 1.853 0 0 0-.396-.831 2.12 2.12 0 0 0-.803-.599c-.326-.154-.717-.231-1.171-.231-.61 0-1.123.129-1.541.388-.419.251-.627.59-.627 1.015 0 .338.134.623.405.857.271.234.735.422 1.393.563l2.565.517c1.377.283 2.405.738 3.081 1.366.676.627 1.015 1.452 1.015 2.472 0 .929-.274 1.744-.821 2.445-.542.702-1.286 1.249-2.233 1.643-.94.387-2.026.581-3.256.581-1.876 0-3.37-.391-4.483-1.172-1.107-.787-1.756-1.857-1.947-3.21l3.865-.203c.117.571.401 1.008.849 1.31.449.295 1.024.443 1.725.443.689 0 1.242-.133 1.66-.397.425-.271.641-.619.647-1.043a1.084 1.084 0 0 0-.453-.877c-.295-.234-.75-.412-1.365-.534l-2.454-.49c-1.383-.277-2.414-.757-3.09-1.439-.67-.683-1.006-1.553-1.006-2.611 0-.911.247-1.695.738-2.353.499-.658 1.196-1.166 2.094-1.523.905-.356 1.962-.534 3.174-.534 1.789 0 3.198.377 4.225 1.134 1.033.757 1.635 1.788 1.807 3.092Zm9.2 10.407c-1.452 0-2.699-.307-3.746-.923a6.229 6.229 0 0 1-2.397-2.583c-.554-1.101-.831-2.368-.831-3.801 0-1.452.28-2.725.84-3.821a6.243 6.243 0 0 1 2.407-2.574c1.04-.621 2.275-.931 3.708-.931 1.237 0 2.319.224 3.247.673.929.449 1.665 1.079 2.205 1.892.542.811.84 1.765.896 2.86h-3.709c-.105-.708-.382-1.276-.83-1.707-.443-.437-1.025-.655-1.744-.655-.608 0-1.141.165-1.595.498-.45.326-.8.803-1.053 1.43-.251.628-.377 1.387-.377 2.279 0 .904.123 1.674.368 2.307.252.634.606 1.116 1.062 1.448.454.333.987.499 1.595.499a2.6 2.6 0 0 0 1.209-.277c.363-.185.66-.453.894-.803.24-.356.397-.784.471-1.283h3.709c-.062 1.083-.357 2.037-.887 2.86-.522.819-1.245 1.458-2.167 1.92-.923.461-2.014.692-3.275.692Zm8.844-.277v-14.172h3.81v2.473h.148c.259-.879.691-1.544 1.301-1.993.608-.455 1.309-.683 2.103-.683a6.1 6.1 0 0 1 .636.037c.228.025.428.059.6.102v3.487a5.156 5.156 0 0 0-.766-.148 6.866 6.866 0 0 0-.895-.064c-.577 0-1.094.126-1.549.378a2.796 2.796 0 0 0-1.071 1.033c-.257.443-.387.954-.387 1.532v8.018h-3.93Zm10.63 0v-14.172h3.929v14.172h-3.929Zm1.974-15.999a2.138 2.138 0 0 1-1.504-.581c-.412-.393-.618-.864-.618-1.412 0-.541.206-1.005.618-1.393.418-.394.92-.59 1.504-.59s1.082.196 1.494.59c.418.388.627.852.627 1.393 0 .548-.209 1.019-.627 1.412-.412.387-.91.581-1.494.581Zm5.104 21.313v-19.486h3.874v2.381h.175c.172-.382.422-.77.747-1.163.332-.4.763-.732 1.291-.997.536-.27 1.2-.405 1.993-.405 1.034 0 1.987.27 2.86.811.873.536 1.572 1.344 2.094 2.427.523 1.077.784 2.427.784 4.051 0 1.581-.255 2.915-.766 4.004-.504 1.082-1.193 1.904-2.066 2.463-.867.554-1.838.831-2.915.831-.763 0-1.411-.126-1.947-.378a4.061 4.061 0 0 1-1.3-.95 4.832 4.832 0 0 1-.775-1.173h-.12v7.584h-3.929Zm3.846-12.4c0 .843.117 1.578.351 2.205.234.628.571 1.116 1.014 1.467.444.345.981.517 1.615.517.639 0 1.181-.175 1.623-.526.443-.357.778-.849 1.005-1.476.234-.633.351-1.363.351-2.187 0-.818-.114-1.537-.341-2.159-.228-.621-.562-1.107-1.006-1.458-.443-.351-.987-.525-1.632-.525-.64 0-1.181.168-1.624.507-.437.338-.771.818-1.005 1.439-.234.622-.351 1.353-.351 2.196Zm20.128-7.086v2.953h-8.532v-2.953h8.532Zm-6.595-3.395h3.93v13.212c0 .364.055.646.166.849a.91.91 0 0 0 .461.415c.203.08.437.12.701.12.184 0 .369-.015.553-.046.185-.037.327-.065.425-.083l.618 2.925c-.197.061-.473.132-.83.212a6.63 6.63 0 0 1-1.301.157c-.947.037-1.777-.089-2.491-.378-.707-.29-1.258-.739-1.651-1.347-.394-.61-.588-1.378-.581-2.308v-13.728Zm9.155 17.567v-14.172h3.931v14.172h-3.931Zm1.974-15.999a2.136 2.136 0 0 1-1.503-.581c-.412-.393-.618-.864-.618-1.412 0-.541.206-1.005.618-1.393.418-.394.919-.59 1.503-.59.585 0 1.082.196 1.495.59.418.388.627.852.627 1.393 0 .548-.209 1.019-.627 1.412-.413.387-.91.581-1.495.581Zm11.506 16.276c-1.433 0-2.672-.304-3.718-.914a6.245 6.245 0 0 1-2.407-2.565c-.566-1.1-.849-2.377-.849-3.828 0-1.464.283-2.743.849-3.839a6.178 6.178 0 0 1 2.407-2.565c1.046-.615 2.285-.922 3.718-.922 1.433 0 2.669.307 3.709.922a6.17 6.17 0 0 1 2.417 2.565c.565 1.096.848 2.375.848 3.839 0 1.451-.283 2.728-.848 3.828a6.236 6.236 0 0 1-2.417 2.565c-1.04.61-2.276.914-3.709.914Zm.018-3.045c.653 0 1.197-.184 1.634-.554.436-.375.765-.885.987-1.531.227-.646.34-1.381.34-2.205 0-.825-.113-1.559-.34-2.206-.222-.645-.551-1.156-.987-1.531-.437-.376-.981-.562-1.634-.562-.657 0-1.211.186-1.66.562-.443.375-.778.886-1.006 1.531-.22.647-.331 1.381-.331 2.206 0 .824.111 1.559.331 2.205.228.646.563 1.156 1.006 1.531.449.37 1.003.554 1.66.554Zm13.441-5.426v8.194h-3.929v-14.172h3.744v2.501h.166a3.956 3.956 0 0 1 1.578-1.957c.738-.485 1.632-.728 2.684-.728.985 0 1.843.215 2.574.645.731.431 1.301 1.047 1.707 1.846.405.793.608 1.741.608 2.841v9.024h-3.929v-8.322c.006-.868-.215-1.544-.665-2.03-.448-.493-1.066-.739-1.853-.739-.53 0-.997.114-1.403.342-.4.228-.713.56-.941.997-.221.43-.335.95-.341 1.558Zm30.032-1.936-3.598.221a1.865 1.865 0 0 0-.397-.831 2.109 2.109 0 0 0-.802-.599c-.327-.154-.718-.231-1.172-.231-.609 0-1.122.129-1.541.388-.417.251-.627.59-.627 1.015 0 .338.136.623.406.857.27.234.735.422 1.393.563l2.564.517c1.378.283 2.405.738 3.081 1.366.677.627 1.015 1.452 1.015 2.472 0 .929-.273 1.744-.821 2.445-.541.702-1.285 1.249-2.232 1.643-.941.387-2.026.581-3.256.581-1.876 0-3.371-.391-4.484-1.172-1.107-.787-1.756-1.857-1.946-3.21l3.865-.203c.117.571.4 1.008.848 1.31.45.295 1.025.443 1.726.443.688 0 1.242-.133 1.66-.397.424-.271.64-.619.646-1.043a1.086 1.086 0 0 0-.452-.877c-.296-.234-.75-.412-1.366-.534l-2.453-.49c-1.384-.277-2.414-.757-3.091-1.439-.67-.683-1.005-1.553-1.005-2.611 0-.911.246-1.695.738-2.353.498-.658 1.197-1.166 2.094-1.523.904-.356 1.962-.534 3.173-.534 1.79 0 3.198.377 4.225 1.134 1.033.757 1.636 1.788 1.809 3.092Zm9.254 10.407c-1.457 0-2.712-.295-3.763-.886a6.053 6.053 0 0 1-2.417-2.528c-.567-1.095-.849-2.389-.849-3.884 0-1.458.282-2.737.849-3.839a6.274 6.274 0 0 1 2.389-2.574c1.033-.615 2.245-.922 3.635-.922.934 0 1.804.151 2.61.451a5.808 5.808 0 0 1 2.121 1.338c.61.597 1.083 1.348 1.421 2.252.339.898.508 1.95.508 3.156v1.079h-11.965v-2.436h8.266c0-.566-.124-1.068-.37-1.504a2.648 2.648 0 0 0-1.024-1.025c-.431-.251-.931-.377-1.504-.377-.596 0-1.125.138-1.586.414a2.917 2.917 0 0 0-1.07 1.099 3.101 3.101 0 0 0-.397 1.523v2.315c0 .701.13 1.307.388 1.818.265.51.636.904 1.116 1.181.479.277 1.049.415 1.706.415a3.72 3.72 0 0 0 1.2-.184c.363-.124.674-.308.931-.554.259-.247.456-.547.591-.904l3.635.24a4.975 4.975 0 0 1-1.135 2.288c-.566.646-1.298 1.15-2.195 1.513-.893.357-1.923.535-3.091.535Zm15.47 0c-1.451 0-2.7-.307-3.745-.923a6.24 6.24 0 0 1-2.399-2.583c-.553-1.101-.83-2.368-.83-3.801 0-1.452.28-2.725.839-3.821a6.259 6.259 0 0 1 2.408-2.574c1.039-.621 2.276-.931 3.709-.931 1.236 0 2.318.224 3.247.673.928.449 1.663 1.079 2.205 1.892.54.811.839 1.765.894 2.86h-3.708c-.105-.708-.381-1.276-.83-1.707-.444-.437-1.024-.655-1.743-.655-.61 0-1.141.165-1.597.498-.449.326-.799.803-1.051 1.43-.253.628-.379 1.387-.379 2.279 0 .904.123 1.674.369 2.307.253.634.606 1.116 1.061 1.448.456.333.987.499 1.597.499a2.6 2.6 0 0 0 1.208-.277c.362-.185.661-.453.895-.803.24-.356.396-.784.47-1.283h3.708c-.061 1.083-.357 2.037-.885 2.86-.523.819-1.246 1.458-2.168 1.92-.922.461-2.014.692-3.275.692Zm16.381-14.449v2.953h-8.533v-2.953h8.533Zm-6.596-3.395h3.929v13.212c0 .364.056.646.167.849a.91.91 0 0 0 .461.415c.203.08.437.12.701.12.185 0 .369-.015.554-.046.185-.037.326-.065.424-.083l.618 2.925a11.46 11.46 0 0 1-.83.212 6.64 6.64 0 0 1-1.301.157c-.946.037-1.777-.089-2.49-.378-.707-.29-1.258-.739-1.652-1.347-.393-.61-.587-1.378-.581-2.308v-13.728Zm9.156 17.567v-14.172h3.929v14.172h-3.929Zm1.974-15.999a2.138 2.138 0 0 1-1.504-.581c-.412-.393-.618-.864-.618-1.412 0-.541.206-1.005.618-1.393.418-.394.92-.59 1.504-.59.585 0 1.082.196 1.495.59.417.388.626.852.626 1.393 0 .548-.209 1.019-.626 1.412-.413.387-.91.581-1.495.581Zm11.506 16.276c-1.434 0-2.673-.304-3.718-.914a6.24 6.24 0 0 1-2.408-2.565c-.565-1.1-.849-2.377-.849-3.828 0-1.464.284-2.743.849-3.839a6.174 6.174 0 0 1 2.408-2.565c1.045-.615 2.284-.922 3.718-.922 1.433 0 2.669.307 3.708.922a6.157 6.157 0 0 1 2.417 2.565c.566 1.096.849 2.375.849 3.839 0 1.451-.283 2.728-.849 3.828a6.223 6.223 0 0 1-2.417 2.565c-1.039.61-2.275.914-3.708.914Zm.018-3.045c.651 0 1.196-.184 1.632-.554.437-.375.767-.885.988-1.531.227-.646.341-1.381.341-2.205 0-.825-.114-1.559-.341-2.206-.221-.645-.551-1.156-.988-1.531-.436-.376-.981-.562-1.632-.562-.658 0-1.212.186-1.661.562-.442.375-.778.886-1.005 1.531-.222.647-.332 1.381-.332 2.206 0 .824.11 1.559.332 2.205.227.646.563 1.156 1.005 1.531.449.37 1.003.554 1.661.554Zm13.44-5.426v8.194h-3.93v-14.172h3.746v2.501h.166a3.951 3.951 0 0 1 1.578-1.957c.737-.485 1.632-.728 2.684-.728.983 0 1.842.215 2.574.645.731.431 1.3 1.047 1.706 1.846.406.793.609 1.741.609 2.841v9.024h-3.93v-8.322c.006-.868-.215-1.544-.664-2.03-.449-.493-1.067-.739-1.854-.739-.529 0-.997.114-1.402.342-.4.228-.713.56-.941.997-.222.43-.335.95-.342 1.558Z"/><path fill="#00C0CD" d="M564.5 1h.25V.75h-.25V1Zm-37.966 0v.25H564.5v-.5h-37.966V1ZM564.5 1h-.25v37.974h.5V1h-.25ZM1 1V.75H.75V1H1Zm0 37.974h.25V1h-.5v37.974H1ZM1 1v.25h37.966v-.5H1V1ZM1 724.5H.75c0 .138.112.25.25.25v-.25Zm37.966 0v-.25H1v.5h37.966v-.25ZM1 724.5h.25v-37.974h-.5V724.5H1ZM564.5 724.5v.25h.25v-.25h-.25Zm0-37.974h-.25V724.5h.5v-37.974h-.25Zm0 37.974v-.25h-37.966v.5H564.5v-.25Z"/><defs><linearGradient id="a" x1="602.467" x2="143.172" y1="317.811" y2="265.867" gradientUnits="userSpaceOnUse"><stop stop-color="#1791E4"/><stop offset=".84" stop-color="#00C0CD"/></linearGradient></defs></svg>